<?xml version="1.0" encoding="UTF-8"?>
<svg id="Layer_1" xmlns="http://www.w3.org/2000/svg" version="1.1" viewBox="0 0 4025.7 521.14">
  <!-- Generator: Adobe Illustrator 30.1.0, SVG Export Plug-In . SVG Version: 2.1.1 Build 136)  -->
  <path d="M1790.58,264.34c-4.94-5.38-10.02-10.68-16.48-14.26h-.07c5.15,5.13,11.1,9.44,16.56,14.26Z"/>
  <path d="M1800.89,274.96l-2-2c.09.14.18.27.27.4.57.54,1.15,1.08,1.73,1.6Z"/>
  <path d="M1799.16,273.36c-.09-.13-.18-.26-.27-.4-2.47-3.18-5.32-5.97-8.31-8.62,2.83,3.09,5.61,6.19,8.58,9.02Z"/>
  <path d="M1799.16,273.36c-2.97-2.83-5.75-5.94-8.58-9.02-5.45-4.82-11.41-9.13-16.56-14.25h0l-.13-.13h0c-4.29-3.1-8.12-6.83-11.28-10.97L1523.68,6.65l-188.86-.45,30.74,18.79c-.36,4.45-2.57,15.69-2.57,21.41l.28,264.32,1.47,129.66c.5,43.62-36.39,66.4-75.85,73.2l236.01-.02c-45.35-20.11-86.42-43.4-116.12-83.17-26.4-31.9-36.83-69.83-38.27-111.93l1.84-286.71,493.77,477.27c16.92,2.31,31.54,2.96,47.44,2.63l.1-126.26-109.12-107.68c-1.99-.69-3.82-2.01-5.38-4.34Z"/>
  <path d="M2521.56,6.81l-151.67.57-177.43-1.33-60.59-.44-129.46,2-42.57,145.09c30.72-35.45,55.52-71.82,91.19-102.81,56.6-49.17,78.39-34.56,153.61-39.08l-57.89,243.9c-.34,3.54-1.14,6.71-2.29,9.57l-36.13,153.3c-11.37,48.24-44.57,82.71-92.9,96.28,68.97,3.38,130.86-21.25,181.48-64.95,18.04-15.57,37.99-34.56,44.17-60.8l88.43-375.59c67.54.51,81.65-10.46,133.44,37.4,27.3,32.88,42.76,69.37,60.34,108.82l-1.73-151.92Z"/>
  <path d="M1773.89,249.96h0l-11.28-10.97c3.16,4.14,6.99,7.87,11.28,10.97Z"/>
  <path d="M3757.18,281.69c-61.9-5.04-117.48-18.82-178.3-18.95l-540.68-1.18c3.09,50.61,20.64,96.81,52.63,134.96,45.51,54.26,114.33,74.77,183.18,58.78,54.35-12.62,97.91-44.33,134.83-89.63-39.16,105.51-148.82,166.7-266.77,153.49-133.08-14.91-229.86-122.81-231.42-255.84l-38.9-1.08.08,210.55c0,14.06,4.37,26.75,9.56,41.65l-170.71.14c25.63-11.96,36.27-30.09,36.03-57.22l-1.53-170.94-45.98,13.55,46.2-19.46,1.15-94.27,122.47-112.91,4.19,182.55,36.86-.41c1.97-112.31,71.29-208.99,179.52-241.7,137.8-41.64,195.19,32.14,232.4-12.06l74.73,160.23-146.67-134.86c-28.34-26.06-69.38-28.99-103.15-13.18-87.66,41.04-117.42,153.38-108.53,243.56l442.54-1.57,110.06-1.88c54.29-.93,107.43-10.18,161.51-14.41,17.29-1.35,28.96-15.56,30.98-31.68l20.3-162.44,20.51,162.73c2.1,16.65,15,28.66,31.54,30.67l169.89,20.55-177.52,22.87c-12.7,1.64-23.03,19.21-24.48,31.15l-19.94,164.07-19.46-164.23c-1.3-11-12.78-30.43-27.13-31.6Z"/>
  <path d="M2700.09,299.6l-29.35,17.91-252.68,196.89-221.87-.24,505.11-477.04c2.61-4.8,7.75-12.3,6.27-15.47l-6.92-14.87,219.8.31c-18.4,8.55-31.9,13.64-47.1,25.28l-381.75,362.85,208.49-95.61Z"/>
  <path d="M863.08,83.24c5.05-3.12,10.2-7.71,11.64-11.62-4,3.75-7.89,7.62-11.64,11.62Z"/>
  <path d="M1230.89,446.96c-.05-3.15,3.12-6.52,7.72-7.73-2.52,2.63-5.09,5.21-7.72,7.73Z"/>
  <path d="M1238.61,439.22c6.97-7.28,13.5-14.95,19.57-22.99-5.32,10.01-12.91,16.18-19.57,22.99Z"/>
  <path d="M1230.89,446.96c-4.87,4.91-17.16,16.72-22.97,19.6,8.03-6.08,15.7-12.63,22.97-19.6Z"/>
  <path d="M650.83,452.41c51.62-14.09,87.12-44.41,125.13-83.18-43.67,108.86-160.04,166.19-275.26,148.85-117.66-17.71-207.13-105.98-219.73-225.8l125.55-13.81c7.48,30.69,14.49,58.43,29.27,85.34,42.46,77.3,128.28,112.28,215.04,88.59Z"/>
  <path d="M3735.96,226.38l-128.86,13.28,52.36-228.93-64.83,1.25c-21.72.42-42.02,5.15-60.13,17.21-61.93,41.22-73.98,71.35-118.92,123.97l42.47-146.06,129.23-1.38,53.44-.04,188.1,1.73,146.8-.57,3.27,152.39c-16.52-39.87-31.23-75.63-58.71-107.71-53.96-49.5-64.9-38.53-135.64-39.08l-48.58,213.95Z"/>
  <path d="M3692.06,398.62c-31.84,70.32-136.89,120.53-217.5,115.4,47.73-15.36,78.31-51.12,89.87-99.03l33.44-138.55,122.9,15.67c-11.04,36.43-13.56,73.04-28.71,106.5Z"/>
  <path d="M415.14,144.46c-6.45,33.07-9.63,60.72-12,96.13l-121.73-15.02C298.96,75.82,429.7-12.16,573.43,2.19c-85.59.14-135.08,65.1-158.28,142.27Z"/>
  <path d="M219.94,476.31l-19.85-165.05c-1.85-15.38-14.43-28.48-30.02-30.43L0,259.47l170.01-20.95c13.52-3.4,27.73-13.1,29.44-27.17l19.84-163.32,22.37,161.92c1.9,13.76,14.67,25.84,28.87,27.66l169.71,21.73-170.56,21.69c-13.71,2.27-26.55,14.53-28.38,28.76l-21.36,166.51Z"/>
  <path d="M1978.54,6.98c-31.49,9.57-64.09,41.95-64.89,72.04l-2.67,99.47c-26.45-80.59-77.54-141.9-159.44-171.04l227.01-.47Z"/>
  <path d="M649.96,56.28c-21.96-20.39-42.13-35.18-65.68-52.41l73.57,12.28c11.28,1.88,21.54-4.69,29.76-16.15l77.8,163.51-115.45-107.22Z"/>
  <path d="M1049.33.98c-143.37,0-259.6,116.22-259.6,259.59s116.23,259.59,259.6,259.59,259.59-116.22,259.59-259.59S1192.7.98,1049.33.98ZM1207.63,451.04c-40.68,40.69-106.65,40.69-147.34,0l-196.78-196.78c-40.69-40.69-40.69-106.65,0-147.34l32.17-32.17c40.68-40.69,106.65-40.69,147.34,0l196.78,196.78c40.69,40.69,40.69,106.66,0,147.34l-32.17,32.17Z"/>
</svg>