<?xml version="1.0" encoding="UTF-8"?>
<svg id="Layer_1" data-name="Layer 1" xmlns="http://www.w3.org/2000/svg" viewBox="0 0 1250.23 209.22">
  <defs>
    <style>
      .cls-1 {
        fill: #fff;
      }

      .cls-2 {
        fill: none;
        stroke: #000;
        stroke-miterlimit: 10;
      }
    </style>
  </defs>
  <path class="cls-1" d="M104.96,193.64c-.81-.98-1.17-5.43.16-6.43.77-.58,4.53-.71,5.01.13.57,1.01.46,2.52.53,4.34.05,1.35-2.77,2.02-5.7,1.96Z"/>
  <path d="M21.82,63.89l-14.04-.38c.12-.25,1.74-1.78,2.24-1.77l11.9.27-3.18-5.27c3.04,1.74,4.32,3.18,7.06,6.21l-6.95,6.14c.67-2.1,1.16-2.62,2.96-5.21Z"/>
  <path d="M9.69,122.47c-.72-3.42-.67-5.3-.8-8.82l-8.89-1.08,8.86-1.18c.16-3.11.15-4.68.89-7.91l1.3,8.1,8.37.98-8.48.98-1.25,8.92Z"/>
  <path d="M107.36,200.26l-1.54-4.56c-.43-1.28-2.59-3.6-3.47-4.73l-5.74-.65c6.2-.12,8.93-3.68,10.87-9.82l1.43,4.56,4.26,3.91c.82.75,4.28.93,4.66,1.21-4.74.23-9.82,3.94-10.49,10.08ZM104.96,193.64c2.92.06,5.75-.61,5.7-1.96-.07-1.82.04-3.33-.53-4.34-.48-.84-4.24-.72-5.01-.13-1.33,1.01-.96,5.45-.16,6.43Z"/>
  <rect x="1232.49" y="1.11" width="17.56" height="3.96"/>
  <rect x="1239.85" y="7.91" width="17.56" height="3.96" transform="translate(1258.52 -1238.74) rotate(90)"/>
  <rect x="1231.61" y="205.14" width="18.45" height="3.96"/>
  <rect x="1239.8" y="198.25" width="17.56" height="4.17" transform="translate(1048.25 1448.91) rotate(-90)"/>
  <rect x="7.08" y="205.07" width="18.45" height="3.96" transform="translate(32.61 414.11) rotate(-180)"/>
  <rect x="-.21" y="198.18" width="17.56" height="4.17" transform="translate(-191.69 208.83) rotate(-90)"/>
  <rect x="7.62" y="1.06" width="17.56" height="3.96" transform="translate(32.8 6.08) rotate(-180)"/>
  <rect x=".26" y="7.85" width="17.56" height="3.96" transform="translate(18.87 .8) rotate(90)"/>
  <rect x="611.94" y="205.26" width="31.91" height="3.96" transform="translate(1255.78 414.48) rotate(-180)"/>
  <rect x="619.11" y="198.36" width="17.56" height="4.17" transform="translate(427.45 828.34) rotate(-90)"/>
  <circle class="cls-2" cx="1241.27" cy="84.93" r="8.37"/>
  <circle cx="1240.84" cy="50.91" r="5.58"/>
  <circle class="cls-2" cx="1240.84" cy="50.91" r="8.37"/>
  <path d="M1250.22,155.5h-17.66l-.07-5.56c0-.31.76-.27.76,0l.07,4.42h16.17s.04-4.41.04-4.41c0-.29.78-.33.77-.03l-.07,5.58Z"/>
  <polygon points="1250.29 129.34 1250.29 135.81 1249.52 135.8 1249.49 130.36 1233.29 130.36 1233.26 135.8 1232.5 135.81 1232.5 129.34 1250.29 129.34"/>
</svg>