<?xml version="1.0" encoding="UTF-8"?>
<svg id="Layer_1" data-name="Layer 1" xmlns="http://www.w3.org/2000/svg" viewBox="0 0 1843.05 1074.13" fill="#264257">
  <path d="M615.9,1073.85l-15.16-.33c8.04-6.48,19.22-13.76,15.08-26.09l-44.76-133.3,40.61-43.26,53.91,155.08c5.77,12.37,14.92,21.31,26.77,28.13,13.35-13.08,21.97-28.97,25.9-47.57l90.94-430.29c6.78-1.16,13.2-1.09,20.73-.16l76.15,389.69,82.39-389.59c7.13-1.07,13.17-.99,20.68-.12l91.25,431.52c4.96,23.43,22.77,52.7,47.44,59.21,17.03-6.86,30.42-23.41,30.44-42.73l.18-156.81c17.91-14.54,30.04-32.56,37.9-53.76,3.42-9.23,8.48-28.73,9.4-37.28.99-9.13,1.74,17.71,1.75,18.8l1.01,234.93c.09,19.72,21.78,36.37,31.58,36.79,8.29.36,16.28-7.31,21.28-13.01,13.15-14.98,16.45-34.53,16.45-54.38v-363.88c0-27.63-6.04-59.45-34.98-69.64-1.91-.67-3.96-1.59-5.1-2.27-1.13-.68-.04-5.25,1.36-5.25h274.61s2.63,0,2.63,0h2.51s67.94,0,67.94,0c1.18.53,2.11,2.09,2.5,2.97l15.03,34.19.74,1.68.75,1.7.78,1.77,33.69,76.45.8,1.82,27.56,62.74c1.09,1.98,1.21,1.7.64-.52-9.48-46.82-16.02-111.34,9.02-153.92,10.26-17.46,28.44-28.42,49.21-28.51l90.19-.37c1.85,0,3.8.27,4.88.5s.25,5.21-1.18,5.6c-21.61,5.87-34.94,26.5-37.28,48.79-.96,9.12-1.6,17.47-1.6,27.13l-.02,432.38c-2,2.03-22.29,1.45-23.64.32s-2.23-3.74-3.44-6.47l-66.18-149.45-.89-2-108.13-244.22c-4.73-10.67-18.19-41.47-22.85-49.26l-11.79-19.72c-1.18-.18-1.88-.28-2.23-.26l.04,393.35c0,28.71,7.61,57.19,37.46,66.32,9.48,2.9,19.49,4.58,29.43,6.34,1.34.24,3.4,2.77,3.15,3.98-.31,1.51-3.56,2.22-5.79,2.22l-89.06.17h-281.83s-231.47-.14-231.47-.14c-1.32,0-3.71-1.37-3.68-2.29.19-6.86,11.03-4.02,19.26-14.75,4.2-5.48,7.52-11.94,8.33-18.88,1.17-9.97,1.2-19.83-1.07-30.44l-71.25-333.03-82.31,391.08-.49,2.34c-.34,1.61-.54,4.99-1.87,5.38s-4.6.68-6.09.66l-2.64-.02h-2.41s-2.43,0-2.43,0c-1.49.01-3.39-.5-3.69-2.01l-.44-2.27-23.93-122.28-4.94-25.25-.37-1.95c-.11-.61-.35-1.51-.38-1.95l-.16-2.16-.17-2.13c-1.81-1.95-2-1.61-1.33.87-5.76,49.01-22.21,113.39-60.77,146.23-9.94,8.46-21.46,12.83-34.72,12.83l-131.79.02ZM1553.6,1007.36l.21-418.69c-7.1-7.17-15.08-12.77-22.62-16.84l.06,149.72c0,1.47-2.71,3.42-3.94,3.18s-2.29-2.51-2.5-4.28c-5.34-44.92-13.84-114.19-52.97-141.96-10.22-6.25-21.47-10.45-34-10.47l-86.33-.14.02,157.87,38.48-.16c10.31-.04,20.56-1.37,30.24-4,15.76-4.29,20.08-20.75,18.94-34.8l-4.12-50.49c2.04-.87,4.77-.78,6.59.38l93.14,419.44c12.77-12.81,18.81-29.82,18.82-48.76ZM1717.85,805.46l74.82,169.96.16-349.59c0-12.23-3.12-23.2-7.48-33.4-6.55-15.31-20.37-23.48-36.56-23.73-15.09-.23-27.79,5.33-37.21,17.29-9.58,12.16-15.65,26.66-18.1,42.51-3.98,25.76-4.26,51.19-.33,77.51,5.03,33.68,10.59,67.38,24.7,99.44ZM780.77,1050.33c13-13.15,21.32-27.99,29.11-44.49,18.5-43.58,26.91-90.19,25.09-137.95l-37.41-192.25-69.54,330.19c-1.7,14.58-2.65,27.51.64,41.15,2.74,6.7,5.92,14.11,13.36,16.03,14.2,3.68,27.97-2.36,38.74-12.68ZM1490.17,903.34l-25.21-112.1c-2.41-10.72-8.18-20.47-12.84-30.05-4.92-10.1-13.66-16.05-23.71-20.37-23.6-7.36-52.38-5.22-76.9-5.34v329.07s93.51-.21,93.51-.21c11.76-.03,21.9-5.43,30.14-12.59,18.87-20.13,23.79-53.91,22.76-80.55-.89-22.91-2.55-44.77-7.74-67.86Z"/>
  <path d="M268.26,158l-56.27-37c-21.3-14-41.53-28-63.62-40.81-6.31-3.66-15.55-2.04-21.59.82s-8.74,9.64-8.46,16.17c.89,20.92,22.62,47.72,38.43,59.46,20.63,15.31,41.62,29.24,64.97,40.47l135.81,65.34c26.23-29.86,62.53-67.07,105.6-66.76,21.35.16,52.37,10.81,61.06,35.39-17.31-8.01-33.61-14.49-52.47-14.6-40.86-.23-73.54,24.09-101.47,51.93,29.45,16.78,54.59,34.27,72.42,62.5,27.63,43.75,18.52,98.59-19.91,132.47-24.58,21.68-56.29,31.72-89.01,24.26-35.93-6.93-70.99-31.23-96.42-56.98-16.38,16.44-32.71,33.72-51.36,48.71-44.01,35.37-106.51,32.48-146.88-6.94-19.27-18.82-31.7-43.27-36.66-70.19-9.76-52.98,10.49-107.57,52.38-141.08,35.62-28.5,81.44-24.6,113.59,6.77,12.31,13.53,23.45,26.77,33.48,42.24l55.97,86.37,63.94-87.76c-25.13-16.9-50.16-31.8-76.98-44.67l-43.8-21.02c-25.43-11.88-48.09-27.71-66.96-48.53-21.28-23.49-35.79-55.76-31.62-88.01,3.86-29.84,28.09-52.85,59.11-52.53,27.32.28,54.97,6.35,78.76,19.99l88.12,50.5c18.95,10.86,40.84,8.6,58.22-3.83,10.47-7.49,19.25-16.18,27.25-26.4l27.44-35.09c-3.97-1.82-6.65-2.77-10.86-5.55l176.91-.1,47.5.51,114.77.31,109.65,152.78-134.38-97.57c-25.22-9.37-52.14-11.02-79.27-7.44l116.27,153.6c8.66,11.44,19.34,20.19,30.34,28.82l29.19,22.91-41.09.52-71.8,1.07c-13.44.28-17.59,11.8-25.37,19.52-14.55,14.45-32.85,24.19-49.35,37.79l-1.27-70.81c-.24-13.11-5.75-24.83-7.54-38.25l19.95,10.65c8.99,4.8,19.44,8.07,29.81,7.79l39.59-1.06-115.99-166.83c-9.67-13.92-22.04-25.99-36.97-33.78-19.01-9.93-44.04-3.69-57.63,12.07-5.88,6.82-5.44,16.96-7.09,25.03v93.07c-14.07-9.94-28.13-15.46-45.68-17.33l-.1-88.27c-1.29-17.1-11.63-31.18-26.92-38.19-10.23,40.62-26.54,81.82-56.47,110.87-19.67,19.1-48.34,23.85-73.39,12.44-16.05-7.31-30.65-15.73-45.87-25.74ZM232.47,426.61l-58.8-74.52c-18.74-23.75-50.68-47.73-81.12-51.96-24.47-3.4-46.29,7.91-57.57,29.41-25.04,47.72-14.33,106.89,25.86,142.93,25,22.43,59.44,28.36,90.99,16.82,31.88-12.18,58.55-36.13,80.64-62.69ZM418.67,430.7c-2.12-14.93-7.8-27.4-14.34-40.02-7.73-13.36-16.65-24.92-27.1-36.41-14.41-14.87-30.02-27.86-47.49-39.51l-67.4,87.29c20.03,30.45,48.79,53.5,82.95,64.57,14.91,4.83,30.44,7.07,45.29,4.02,19-3.9,30.86-20.41,28.08-39.95Z"/>
  <path d="M1273.44,433.46l-63.36-295.89-75.42,358-15.79.28-28.44-144.91c-5.2,42.81-17.7,95.65-48.65,127.66-8.77,9.07-19.85,17.09-32.97,17.12l-153.92.37c8.77-4.25,17.23-6.93,24.36-12.94,9.84-8.29,15.89-19.38,15.95-32.64l.32-71.96,43.82-64.81.74,137.91c.06,11.48,2.72,21.71,12.2,28.74,12.56-11.38,21.58-26.1,25.24-43.41l82.12-388.31c6.57-.34,11.77-.34,18.41.05l68.47,349.83,74.06-349.89,18.32-.28,82.12,388.27c3.6,17.02,11.91,31.05,24.33,42.91,3.59-6.57,8.5-13.64,8.5-22.65l.03-412.78,95.34-.06c1.16.58,2.34,1.31,1.55,1.2l-34.83,15.52c-7.55,9.46-12.81,18.59-8.49,31.28l56.51,165.92c-11.75,11.68-23.56,21.47-38.3,32.08l-25.89-70.21-.77,99.44c49.71-23.26,89.82-61.13,117.1-108.71,14-24.42,24.99-49.73,34.71-76.11,5.7-15.47,11.13-37.78,7.97-54.02-.4-1.91-.6-3.79.45-1.29,11.14,18.4,1.47,60.33-4.95,79.74-26.89,81.28-82.43,166.98-155.65,214.7l.02,75.93c0,14.85,7.67,28.07,19.28,36.64,4.9,3.62,10.57,5.94,15.16,9.73l-179.94.07c-2.59,0-3.49-3.06-2.83-3.87s2.19-2.02,3.38-2.39c23.79-7.42,24.4-34.46,19.73-56.24ZM1035.96,472.87c10.7-11.4,17.9-24.5,24.65-38.91,16.28-39.09,23.87-80.78,21.95-123.54l-33.51-171.67-61.78,293.36c-2.39,11.34-2.1,21.8-1.64,32.89,1.5,6.61,3.13,13.06,7.83,17.99,9.48,9.92,30.61,2.56,42.5-10.1Z"/>
  <path d="M216.37,1073.85l-175.31.27c-1.24,0-3-3.04-2.5-3.84s2.09-2.43,3.3-2.79c25.45-7.6,36.43-36.1,36.43-61.5v-370.87c0-14.51-2.94-27.96-9.54-40.01-11.79-21.53-30.4-21.18-29.82-24.36l.8-4.37,172.63.1c17.07.01,32.56,1.77,49.11,4.84,72.43,13.41,133.83,60,166.14,126.39,47.81,98.23,34.46,227.03-43.16,306.3-43.22,44.14-104.56,69.73-168.08,69.83ZM397.06,903.51c11.56-59.43,6.44-119.15-13.8-175.38-20.52-57.01-57.57-107.95-112.58-135.32-22.42-10.53-45.77-16.61-70.7-16.65l-68.81-.11v488.45s88.43-.16,88.43-.16c22.93-.04,44.02-4.88,65.2-12.76,62.25-26.34,99.4-81.96,112.27-148.08Z"/>
  <path d="M1600.8,459.93c12.89,34.46,50.72,27.83,56.68,34.46.43.48-1.82,1.83-2.54,1.83l-182.33-.04,10.13-8.63c4.45-3.8,5.35-9.85,3.89-15.46l-40.18-119.47,36.41-38.68,48.47,138.87c4.89,14,23.74,27.25,37.38,32.48,17.37-15.12,20.38-35.14,20.38-57.52l.04-359.79c-8.79-9.94-23.98-18.06-34.84-21.7-.98-.33-2.29-2-2.46-2.53-.25-.8,1.83-1.61,2.99-1.61l80.46.05,75.58,171.51c-9.43-43.08-17.33-100.39,2.5-140.96,8.78-18.39,25-29.87,46.51-30.3,25.29-.52,59.47-.25,80.78-.22,1.68,0,2.7,2.44,2.31,2.69s-1.66,1.17-2.23,1.34c-23.5,7.19-33.35,32.05-33.36,55.45l-.07,394.19-19.91.07-171.03-385.96c-5.61-12.65-12.56-23.77-20.52-34.64v358.83c0,9.32,1.93,17.7,4.94,25.75ZM1731.9,259.7l68.6,155.8.06-309.45c0-12.28-2.16-23.31-6.26-33.92-6.16-14.68-18.99-22.86-34.64-22.85-14.32.01-26.03,6.01-34.51,17.64-21.47,29.42-18.24,73.9-14.82,108.98,5.68,28.29,9.61,56.61,21.58,83.8Z"/>
  <path d="M667.7,718.58c13.32-29.49,37.83-82.69,26.45-113.74,16.06,20.93,4.65,70.4-3.31,94.36-30.2,90.92-92.05,185.32-173.18,238.52l-.04,81.48c0,15.41,5.44,29.21,16.69,39.59,6.51,6.01,14.28,9.39,22.35,14.94h-120.64c16.77-9.58,31.6-23.61,31.62-43.8l.35-370.63.22-89.39,107.44,1.38-38.6,17.66c-7.84,10.2-14.28,20.85-9.66,34.36l63.17,185.6c-13.94,13.39-27.16,24.6-42.76,35.48l-28.61-77.5-1.03,110.35c71.17-34.63,116.76-86.09,149.54-158.63Z"/>
  <path d="M589.97,494.88l-198.27-.74,17.56-9.28c7.92-3.84,16.16-6.14,23.95-10.59,21.12-12.07,37.18-33.83,37.35-58.55l.63-92.27.08-97.52c16.27.08,30.87,4.87,45.16,12.35v210.39c18.86,2.34,37.51-1.07,54.64-9.97l125.58-91.32-106.68,147.5Z"/>
  <path d="M653.34,423.8l33.89-46.37c4.16-4.08,8.61-7.75,13.71-11.06l.09,95.64c27.92-4.19,54.42-11.13,80.79-20.26l124.57-97.61-101.78,152.32-196.28-.19c5.48-3.28,10.05-4.31,15.13-6.27,29.55-12.92,31.54-35.43,29.89-66.21Z"/>
  <path d="M1205.12,737.11l-7.12-63.08c-1.75-15.53-12.76-27.34-26.97-33.42-8.52-3.64-16.41-4.39-26.95-7.17l21.6-5.78c30.8-8.25,34.8-39.32,36.34-66.91l1.68-30.13c.17-3.03.45-5.6,2.19-7.42l1.28,21.19c1.81,29.9-1.18,75.09,39.98,84.27,6.35,1.41,12.35,2.91,18.87,4.9-12.05,2.74-21.41,3.89-31.09,8.8-13.41,7.46-22.22,19.7-24.19,35.07l-5.62,59.7Z"/>
  <path d="M918.05,187.63c-1.56-17.07-2.66-33.46-5.2-50.32-1.93-12.85-9.97-22.98-21.26-28.74-8.82-4.5-17.51-5.35-28.19-7.75l20.92-5.41c22.96-5.93,30.39-29.62,31.5-50.83l1.59-30.48c.26-5.05.89-9.61,2.25-14.11,4.69,32.56-6.23,85.63,36.48,96.24l18.41,4.57c-9.86,2.29-17.72,2.92-26.05,6.81-12.82,5.99-22.77,17.6-24.04,32.22l-4.8,55.44c-.6-2.21-1.4-5.18-1.63-7.64Z"/>
  <path d="M895.92,339.55l-.57-28.93c26.71-22.05,35.9-47.57,42.7-81,.71,6.39,1.34,13.04,1.36,19.91l.12,55.74-43.6,34.28Z"/>
  <path d="M1496.17,146.25c-2.52,10.18-7.29,17.61-13.78,24.93l-14.29,16.12c.63-30.6,37.86-145.67,81.47-119.3-7.89-1.93-15.1-1.52-21.15,3.97-11.77,10.68-19.95,24.54-23.83,40.22l-8.43,34.07Z"/>
  <path d="M626.09,685.25c-2.45,9.74-6.72,17.97-13.32,24.63l-17.8,20.7c4.33-36.03,15.46-69.43,32.57-100.11,10.75-19.28,35.4-50.33,59.27-32.67-8.51-3.21-16.06-2.73-23.19,2.71-13.33,11.42-22.91,26.56-27.28,43.96l-10.26,40.77Z"/>
  <path d="M658.53,50.25c-.1-.71,2.56-.77,3.29-.79s1.64,2.73.93,2.9l-2.6.63c-.72.17-1.49-1.77-1.63-2.73Z"/>
</svg>