<?xml version="1.0" encoding="UTF-8"?>
<svg id="Layer_1" data-name="Layer 1" xmlns="http://www.w3.org/2000/svg" viewBox="0 0 1003.53 200.63">
  <defs>
    <style>
      .cls-1 {
        fill: #fff;
      }
    </style>
  </defs>
  <path d="M1003.53,105.24v4.8c-.35,1.24-.4,2.47-.49,3.89-.44,7.12-2.92,13.99-6.87,19.74-4.47,6.5-12,8.56-19.27,5.42-5.44-2.35-9.94-6.93-10.79-5.14-1.66,3.49-4.6,5.81-7.81,7.8-11.81,6.3-27.63,7.32-40.64,2.54-11.34,3.76-22.9,6.76-35.34,6.79l-80.28.13-2.33-.91c-5.8-2.25-10.6-5.5-13.91-10.82s-5.56-11.2-7.66-17.48c-.52,9.46-4.36,18.68-10.72,25.9-2.78,3.16-6.44,3.89-10.5,2.84-8.8-2.27-16.74-6.85-24.3-12.17-6.03,5.98-14.04,12.05-22.92,12.69-9.12-.94-17.82-3.41-25.78-8.12-.78,2.21-1.28,4.38-2.56,6.21-1.24,1.77-4.46,2.44-6.67,2-8.14-1.59-21.85-6.24-27.92-12.43-4.57,6.66-9.13,13.11-18.24,12.25-6.49-.62-13.55-1.31-16.64-8.19-3.97-8.83-5.82-23.6-7.12-33.59l-9.36-71.73c-.78-5.98-2.95-11.41-3.02-17.38-.01-1,1.97-19.56,4.45-19.87,2.74,6.52,4.42,12.99,5.35,20.02l4.97,37.3,5.32,39.78c1.01,7.55,2.37,14.57,3.9,21.98,1.31,6.33,5.98,10.96,12.76,11.67,4.38.46,10.14.35,14.13-1.72,6.11-3.17,12.72-19.64,16.84-23.31,4.41-3.91,11.57-1.42,15.04,2.37l9.99,10.89c5.58,6.08,13.76,10.06,22.02,11.77,5.36,1.11,11.43-.47,16.13-2.83l11.88-5.97c9.21,3.89,19.4,10.4,29.23,8.78,4.4-.72,7.33-4.07,7.34-8.65.02-5.81-.72-11.41-1.51-17.3l-7.16-53.25c-1.56-11.63-2.46-22.78-2.09-34.49.1-3.3,1.97-17.25,5.88-17.41.95.79,1.39,2.7,1.4,4,.11,9.25.78,18.1,2.14,27.25l3.5,23.42c2.92,19.56,7.33,38.54,13.71,57.21,1.9,5.55,4.47,10.42,8.35,14.73,1.75,1.94,4.56,4.72,7.48,4.72l79.55-.02c10.03,0,19.52-2.01,28.89-5.06,5.26-1.71,10.33-4.88,13.22-9.5,2.06-3.3,3.06-10.76,6.28-11.11.49,3.05.58,5.69-.13,8.3l-2.96,10.93c2.53.68,4.89.88,7.55.82,12.04-.25,26.55-1.07,30.97-14.41,1.85-5.57,3.43-13.01,9.29-14.87.62,1.93.67,3.75.29,5.48l-2.53,11.38c4.33,4.77,7.44,6.16,14.37,6.28,1.31.02,3.16-1.12,4.66-1.61.98-6.97-3.48-4.15-.16-11.88,1.79-4.18,3.29-8.58,4.25-12.94.08-.38.66-1.04.98-1.1,2.24-.38,5.4,11.23,5.56,13.21ZM665.47,125.95l11.05,4.32c-1.35-5.09-7.22-16.24-12.72-15.1-1.29.27-2.84,1.54-3.39,2.93l-2.08,5.23,7.13,2.61Z"/>
  <path d="M0,162.51v-8.16c.28-.67.61-1.58.67-2.16.7-6.65,1.7-12.97,3.77-19.27.81-2.47,4.17-10.31,7.16-8.34s.49,11.05-.6,14.22c-1.56,4.54-1.91,8.8-1.18,13.56,2.49,16.08,14.73,28.19,31.91,25.23,12.49-2.15,31.64-9.99,38.75-21.58.19-10.12-1.25-20.02-5.32-29.37l-12.91-17.96,5.32-19.55c.5-1.84,2.77-2.78,4.34-2.02,7.15,11.05,12.76,26.86,15.95,39.48,4.33,17.1,1.36,31.95-5.17,47.92-10.24,16.72-31.06,26.69-50.51,26.09-18.93-.59-29.73-18.43-31.46-35.52-.09-.9-.42-1.93-.72-2.58Z"/>
  <path d="M502.34,162.51v-8.16c.28-.67.61-1.58.67-2.16.7-6.65,1.7-12.97,3.77-19.27.81-2.47,4.17-10.31,7.16-8.34s.49,11.05-.6,14.22c-1.56,4.54-1.91,8.8-1.18,13.56,2.49,16.08,14.73,28.19,31.91,25.23,12.49-2.15,31.64-9.99,38.75-21.58.19-10.12-1.25-20.02-5.32-29.37l-12.91-17.96,5.32-19.55c.5-1.84,2.77-2.78,4.34-2.02,7.15,11.05,12.76,26.86,15.95,39.48,4.33,17.1,1.36,31.95-5.17,47.92-10.24,16.72-31.06,26.69-50.51,26.09-18.93-.59-29.73-18.43-31.46-35.52-.09-.9-.42-1.93-.72-2.58Z"/>
  <path d="M257.52,131.41h-128.72s-.05,19.79-.05,19.79l131.35-.02c3.32,0,7.51-1.74,11.46-4.1-.72-5.71-.76-11.71-1.4-17.53-3.99,1.4-8.09,1.86-12.63,1.86Z"/>
  <path d="M357.58,92.71c-9.8-1.4-14.01,11.32-19.92,17.4-.44.54-1.56,2.21-2.01,2.63-3.4,3.19-6.51,7.07-9.5,10.7-4.05,4.9-10.19,7.78-16.58,7.86-6.47.09-18.26-6.13-24.72-9l-11.06,5.68c-1.21.62-2.43,1.13-3.65,1.56.65,5.82.68,11.82,1.4,17.53,4.33-2.58,8.37-5.91,10.69-8.53,5.76,4.36,20.89,12.96,27.74,12.52,6.17-.4,11.92-3.96,14.91-9.23,2.49-4.39,4.8-8.49,7.73-12.85,7.54,5.36,18.57,8.38,27.61,8.16,3.83-.1,9.55-10.77,10.31-16.54,1.21-9.2-1.91-26.34-12.96-27.91ZM343.62,113.47c1.25-2.47,3.3-4.58,6.2-5.12,3.25-.6,6.62.91,7.36,4.26l1.4,6.35c-5.7-.29-10.22-2.35-14.96-5.49Z"/>
  <path d="M382.58,132.49c5.01,9.48,31.07,1.53,38.96-1.19,2.47-.85,8.13-3.08,6.55-6.42-4.04-8.54-9.14-16.28-15.59-23.13-4.2-4.47-11.55-10.63-17.42-5.31-1.01-.29-2.12-1.62-2.45-2.77-1.52-5.36-1.12-10.82,1-15.98,1.98-4.8,7.14-7.87,12.34-6.37,1.68.48,3.53,1.95,4.97,3.19,11.12,9.59,19.26,21.99,23.41,36.15,3.49,11.91,4.15,24.96-3.55,35.31-1.25,1.68-3.69,3.04-5.68,3.94-10.73,4.86-22.03,8.22-33.71,9.3-5.72.53-10.17-2.3-12.3-7.49s-4.11-20.92,3.47-19.21Z"/>
  <path d="M128.75,151.2c-7.49-.26-16.78-1.83-19.65-8.85-3.81-9.31-5.49-22.79-6.83-33.05l-9.36-71.67c-.78-5.99-2.95-11.46-3.02-17.43-.01-1.05,1.97-19.2,4.4-19.87,2.82,6.49,4.45,13,5.4,20l4.39,32.61,5.96,44.88c.98,7.42,2.37,14.36,3.85,21.64,1.3,6.38,8.32,11.01,14.9,11.93l-.05,19.8Z"/>
  <path d="M56.83,54.45c-.79,3.05-3.84,14.77-7.33,14.14-4.55-.82-14.24-3.15-15.73-7.49-.29-.85.53-2.3,1.02-3.36l4.79-10.53c1.1-2.41,3.41-3.03,5.56-1.98l8.8,4.25c1.61.78,3.36,3.18,2.9,4.98Z"/>
  <path d="M558.97,63.61c-1.41,4.16-3.6,13.29-7.42,12.52-4.37-.88-13.81-3.13-15.32-7.35-.28-.78.46-2.19.9-3.15l4.94-10.86c.99-2.18,3.22-3.04,5.26-2.06l9.07,4.37c2.58,1.25,3.43,4.05,2.58,6.53Z"/>
  <path d="M293.32,168.45c-.7,3.82-4.2,16.93-10.21,13.41-4.39-2.58-8.14-6.01-10.92-10.24,2.39-5.27,4.62-9.89,7.92-14.82,3.28.93,13.83,8.29,13.21,11.66Z"/>
  <path d="M744.51,170.24c-.76,3.88-4.03,17.26-10.25,13.67-4.32-2.49-7.84-5.84-10.88-10.05,2.22-5.25,4.57-10.21,8.06-15.05,3.65,1.51,12.9,7.82,13.07,11.43Z"/>
  <path d="M717.36,191.47c-2.05,3.67-12.46-4.15-14.84-5.69-1.36-1.35-2.1-3.16-1.33-5.02,1.87-4.52,3.95-8.66,6.66-12.81,5.23,3.18,9.39,6.55,13.54,10.73-.51,4.73-1.79,8.77-4.03,12.79Z"/>
  <path d="M266.24,189.31c-2.07,3.83-12.43-4.03-14.85-5.57-1.57-1.46-2.09-3.42-1.23-5.44,1.83-4.27,3.8-8.13,6.43-12.41,5.1,3.06,9.59,6.43,13.56,10.8-.23,4.47-1.85,8.79-3.92,12.62Z"/>
  <path class="cls-1" d="M665.47,125.95l-7.13-2.61,2.08-5.23c.55-1.39,2.09-2.67,3.39-2.93,5.5-1.14,11.36,10.01,12.72,15.1l-11.05-4.32Z"/>
  <path class="cls-1" d="M358.57,118.96c-5.7-.29-10.22-2.35-14.96-5.49,1.25-2.47,3.3-4.58,6.2-5.12,3.25-.6,6.62.91,7.36,4.26l1.4,6.35Z"/>
</svg>