<?xml version="1.0" encoding="UTF-8"?>
<svg id="Layer_1" data-name="Layer 1" xmlns="http://www.w3.org/2000/svg" viewBox="0 0 1015.41 132.01">
  <path d="M510.4,130.12c10.89-4.64,18.41-11.77,21.12-22.8l10.14-41.22-41.8,4.62c-4.4,1.36-6.91,4.78-7.32,9.3l-5.13,39.83-4.8-40.62c-.44-3.76-3.33-7.55-7.24-8.14-8.07-1.23-15.17-2.13-23.85-2.53l29.63,28.82v31.4c-3.52,1.58-9.56,2.21-12.19-.33l-35.77-34.5-40.07-38.9-49.23-47.61-7.51-5.96,45.76-.04,26.15,25.33,37.63,36.87,27.21-2.89c4.86-.52,8.62-3.28,9.33-8.44l5.13-39.52,5.11,39.61c.76,5.3,4.36,7.81,9.49,8.33l39.62,3.98,13.74-57.32c.4-1.68.4-4.02.42-6.02h32.47s-22.11,95.37-22.11,95.37c-1.64,7.07-7.7,12.82-12.83,17.5-11.83,10.8-27.42,16.01-43.1,15.87Z"/>
  <path d="M674.78,79.69l-64.43,50.39-55.27-.27c3.8-4.46,6.87-7.14,10.64-10.45l23.05-22.09,93.01-87.58c.87-.82,2.5-2.97,2.21-3.91l-1.37-4.4,52.38.09c-5.84,4.13-10.57,7.77-15.66,12.6l-61.03,57.9-30.68,29.3,47.17-21.58Z"/>
  <path d="M809.09,116.07c20.21,2.39,36.58-6.01,50.56-21-2.82,10.45-11.6,19.14-20.89,25.63-24.34,17.01-56.92,14.19-80.3-4.08-14.36-11.22-22.87-32.47-23.29-48.49-.03-1.19-2.02-2.46-2.41-2.21-.36.22,2.21-1.03,2.23-2.28.63-33.19,30.77-67.31,67.99-62.45-11.79,1.68-21.23,9.9-27.04,20.33-8.02,14.41-9.84,30.56-8.2,46.94,2.28,22.82,17.26,44.77,41.34,47.62Z"/>
  <path d="M254.8,61.73c3.52-.45,5.08-3.46,5.43-6.44l3.29-28.19c4.7,9.73-.62,35.62,11.05,35.32l31.66-.82-48.35-48.21c-6.42-6.4-14.41-6.48-23.59-5.21,26.15-14.82,59.12-8.07,78.79,13.58,19.62,21.59,22.92,55.8,5.86,79.68,5.08-9.95,6.25-26.41-5.85-30.6-11.42-3.96-25.12-.68-37.03-2.06-3.54-.41-7.74,2.7-8.11,5.47-1.44,10.55-2.12,19.36-4.21,30.22-1.97-10.79-2.56-19.59-3.55-29.95-.22-2.29-2.85-4.93-5.29-5.19l-32.34-3.43,32.26-4.16Z"/>
  <path d="M720.08,130.05l-32.85-.07c3.66-4.86,6.36-6.95,6.36-11.5l-.03-70.94,31.5-29.46.23,104.52,2.13,6.93c-1.74.25-4.74.52-7.34.52Z"/>
  <path d="M294.6,123.76c-29.85,17.23-68.66,5.19-86.61-24.79-12.55-20.97-11.78-47.52,1.5-67.8-4.77,11-4.49,21.01,3.82,29.89l57.65,57.75c6.96,5.76,14.04,6.7,23.63,4.95Z"/>
  <path d="M158.95,115.51c15.96-3.19,23.37-9.84,35.14-21.15-1.88,6.71-6.38,11.56-10.79,16.59-12.38,14.15-29.73,20.93-48.57,20.86-33.46-.13-62.15-24.21-65.06-57.87l31.66-3.64c4.22,30.04,27.67,51.21,57.63,45.22Z"/>
  <polygon points="944.14 56.99 911.49 60.76 925.2 1.38 956.97 1.47 944.14 56.99"/>
  <path d="M935.17,96.57c-7.33,20.11-34.48,34.34-54.78,33.48,8.69-5.28,16.36-10.61,18.77-20.03l10.25-39.99,31.16,3.64-5.4,22.9Z"/>
  <path d="M137.9.57c-28.78,5.1-37.23,35.66-37.58,60.27l-30.76-3.87C72.96,22.65,104.28-1.91,137.9.57Z"/>
  <path d="M961.21,120.75l-4.87-42.21c-.39-3.37-3.45-7.04-7.04-7.48l-42.85-5.28c13.91-2.63,26.83-3.88,40.48-5.18,5.01-.48,8.78-2.93,9.44-8.45l4.88-40.93,5.54,42.17c.54,4.14,4.04,6.54,7.75,7.01,13.76,1.75,26.52,2.31,40.87,5.24l-41.33,5.28c-3.97,1.02-6.97,3.92-7.5,8.06l-5.37,41.78Z"/>
  <path d="M54.15,119.76c-2.56-14.53-3.59-27.73-5.23-41.85-.44-3.77-3.59-6.49-7.46-7.01-13.99-1.87-27.22-2.69-41.46-5.34,14.46-2.41,27.27-3.46,41.01-5.05,4.03-.47,7.41-3.54,7.94-7.64l5.16-39.89,4.99,39.22c.55,4.31,3.47,7.4,7.62,7.97,13.65,1.87,26.43,2.47,40.52,5.62l-41.21,5.3c-3.68.47-6.24,4.14-6.68,7.64l-5.2,41.03Z"/>
  <path d="M496.15,1.5c-21.45,10.79-12.47,24-15.84,42.4-7.12-20.54-19.62-34.59-40.12-42.17l55.96-.23Z"/>
  <path d="M329.4,129.65c7.17-4.85,12.73-9.53,12.91-18.38l.57-27.96c3.64,21.13,17.45,38.39,38.39,46.1l-51.87.24Z"/>
  <path d="M857.96,40.24c-15.84-11.87-27.75-28.29-44.56-39.09,5.61.45,10.41,1.45,15.7,2.58,3.84,1.44,7.35.28,10.21-3.65l18.64,40.17Z"/>
  <path d="M191.1,40.03c-16.81-13.55-26.12-26.13-43.82-38.83,9.79-.91,19.47,7.7,25.08-1.19,6.3,13.16,13.18,25.38,18.74,40.03Z"/>
  <path d="M513.48,15.69l-19.3,23.2,11.21-37.48,31.67.13c-8.85,3.81-16.26,7.56-23.57,14.15Z"/>
  <path d="M636.82,37.61l-10.3-19.19c-5.97-9.16-14.44-14.58-24.99-16.83l35.17-.15.12,36.17Z"/>
  <path d="M906.83,1.47c-23.07,7.71-30.06,19.68-43.5,36.89l10.55-36.91h32.95Z"/>
  <path d="M1005.67,37.87c-5.04-9.2-8.23-16.4-13.63-23.77-5.16-5.75-10.8-8.57-18.61-12.39l31.39-.37.85,36.53Z"/>
</svg>