<?xml version="1.0" encoding="UTF-8"?>
<svg id="Layer_1" data-name="Layer 1" xmlns="http://www.w3.org/2000/svg" viewBox="0 0 3000 1719.97">
  <defs>
    <style>
      .cls-1 {
        fill: #274357;
      }
    </style>
  </defs>
  <path class="cls-1" d="M959.93,1477.25l-25.2-.55c13.37-10.77,31.95-22.87,25.07-43.37l-74.41-221.6,67.51-71.92,89.62,257.81c9.59,20.56,24.8,35.43,44.5,46.76,22.19-21.74,36.52-48.16,43.06-79.08l151.18-715.32c11.27-1.93,21.94-1.81,34.46-.27l126.59,647.83,136.97-647.66c11.85-1.78,21.89-1.65,34.38-.2l151.7,717.37c8.25,38.95,37.85,87.61,78.87,98.43,28.31-11.4,50.57-38.92,50.6-71.04l.3-260.68c29.77-24.17,49.94-54.13,63.01-89.37,5.69-15.34,14.1-47.76,15.63-61.97,1.65-15.18,2.89,29.44,2.91,31.25l1.68,390.55c.15,32.78,36.21,60.46,52.5,61.16,13.78.6,27.06-12.15,35.38-21.63,21.86-24.9,27.35-57.4,27.35-90.4v-604.92c0-45.93-10.04-98.83-58.15-115.77-3.18-1.11-6.58-2.64-8.48-3.77-1.88-1.13-.07-8.73,2.26-8.73h578.01c1.96.88,3.51,3.47,4.16,4.94l24.99,56.84,1.23,2.79,1.25,2.83,1.3,2.94,56.01,127.09,1.33,3.03,45.82,104.3c1.81,3.29,2.01,2.83,1.06-.86-15.76-77.83-26.63-185.09,15-255.88,17.06-29.03,47.28-47.25,81.81-47.4l149.93-.62c3.08,0,6.32.45,8.11.83s.42,8.66-1.96,9.31c-35.92,9.76-58.08,44.05-61.97,81.11-1.6,15.16-2.66,29.04-2.66,45.1l-.03,718.8c-3.32,3.37-37.06,2.41-39.3.53s-3.71-6.22-5.72-10.76l-110.02-248.45-1.48-3.32-179.76-406c-7.86-17.74-30.24-68.94-37.99-81.89l-19.6-32.78c-1.96-.3-3.13-.47-3.71-.43l.07,653.91c0,47.73,12.65,95.07,62.27,110.25,15.76,4.82,32.4,7.61,48.93,10.54,2.23.4,5.65,4.6,5.24,6.62-.52,2.51-5.92,3.69-9.63,3.69l-148.06.28h-468.52l-384.8-.23c-2.19,0-6.17-2.28-6.12-3.81.32-11.4,18.34-6.68,32.02-24.52,6.98-9.11,12.5-19.85,13.85-31.39,1.95-16.57,1.99-32.97-1.78-50.6l-118.45-553.64-136.83,650.14-.81,3.89c-.57,2.68-.9,8.3-3.11,8.94s-7.65,1.13-10.12,1.1l-4.39-.03h-8.05c-2.48.02-5.64-.83-6.13-3.34l-.73-3.77-39.78-203.28-8.21-41.98-.62-3.24c-.18-1.01-.58-2.51-.63-3.24l-.27-3.59-.28-3.54c-3.01-3.24-3.32-2.68-2.21,1.45-9.58,81.48-36.92,188.5-101.03,243.1-16.52,14.06-35.68,21.33-57.72,21.33l-219.09.03h-.07v-.02ZM2518.77,1366.71l.35-696.04c-11.8-11.92-25.07-21.23-37.6-28l.1,248.9c0,2.44-4.51,5.69-6.55,5.29-2.04-.4-3.81-4.17-4.16-7.12-8.88-74.68-23.01-189.83-88.06-236-16.99-10.39-35.69-17.37-56.52-17.41l-143.52-.23.03,262.45,63.97-.27c17.14-.07,34.18-2.28,50.27-6.65,26.2-7.13,33.38-34.5,31.49-57.85l-6.85-83.94c3.39-1.45,7.93-1.3,10.96.63l154.84,697.28c21.23-21.3,31.27-49.57,31.29-81.06h-.03ZM2791.83,1031.07l124.38,282.54.27-581.16c0-20.33-5.19-38.57-12.43-55.52-10.89-25.45-33.86-39.03-60.78-39.45-25.09-.38-46.2,8.86-61.86,28.74-15.93,20.21-26.02,44.32-30.09,70.67-6.62,42.82-7.08,85.1-.55,128.85,8.36,55.99,17.6,112.01,41.06,165.31h0v.02ZM1234.01,1438.15c21.61-21.86,35.44-46.53,48.39-73.96,30.75-72.45,44.74-149.93,41.71-229.33l-62.19-319.6-115.6,548.91c-2.83,24.24-4.41,45.73,1.06,68.41,4.56,11.14,9.84,23.46,22.21,26.65,23.61,6.12,46.5-3.92,64.4-21.08h.02ZM2413.33,1193.79l-41.91-186.36c-4.01-17.82-13.6-34.03-21.35-49.96-8.18-16.79-22.71-26.68-39.42-33.86-39.23-12.24-87.08-8.68-127.84-8.88v547.05l155.45-.35c19.55-.05,36.41-9.03,50.11-20.93,31.37-33.46,39.55-89.62,37.84-133.91-1.48-38.09-4.24-74.43-12.87-112.81h-.02Z"/>
  <path class="cls-1" d="M767.16,177.18l-63.1-41.49c-23.88-15.7-46.57-31.4-71.34-45.76-7.08-4.1-17.44-2.29-24.21.92s-9.8,10.81-9.49,18.13c1,23.46,25.36,53.51,43.09,66.67,23.13,17.17,46.67,32.79,72.85,45.38l152.28,73.27c29.41-33.48,70.11-75.21,118.41-74.86,23.94.18,58.72,12.12,68.47,39.68-19.41-8.98-37.69-16.25-58.83-16.37-45.82-.26-82.46,27.01-113.78,58.23,33.02,18.82,61.21,38.43,81.2,70.08,30.98,49.06,20.77,110.55-22.33,148.54-27.56,24.31-63.12,35.57-99.81,27.2-40.29-7.77-79.6-35.02-108.12-63.89-18.37,18.43-36.68,37.81-57.59,54.62-49.35,39.66-119.43,36.42-164.7-7.78-21.61-21.1-35.55-48.52-41.11-78.7-10.94-59.41,11.76-120.62,58.73-158.19,39.94-31.96,91.32-27.58,127.37,7.59,13.8,15.17,26.29,30.02,37.54,47.36l62.76,96.85,71.7-98.4c-28.18-18.95-56.24-35.66-86.32-50.09l-49.11-23.57c-28.51-13.32-53.92-31.07-75.08-54.42-23.86-26.34-40.13-62.52-35.46-98.69,4.33-33.46,31.5-59.26,66.28-58.9,30.63.31,61.64,7.12,88.31,22.41l98.81,56.63c21.25,12.18,45.79,9.64,65.28-4.29,11.74-8.4,21.58-18.14,30.56-29.6l30.77-39.35c-4.45-2.04-7.46-3.11-12.18-6.22l198.37-.11,53.26.57,128.69.35,122.95,171.31-150.68-109.4c-28.28-10.51-58.46-12.36-88.89-8.34l130.37,172.23c9.71,12.83,21.69,22.64,34.02,32.32l32.73,25.69-46.07.58-80.51,1.2c-15.07.31-19.72,13.23-28.45,21.89-16.31,16.2-36.83,27.12-55.34,42.37l-1.42-79.4c-.27-14.7-6.45-27.84-8.45-42.89l22.37,11.94c10.08,5.38,21.8,9.05,33.43,8.73l44.39-1.19-130.06-187.07c-10.84-15.61-24.71-29.14-41.45-37.88-21.32-11.13-49.38-4.14-64.62,13.53-6.59,7.65-6.1,19.02-7.95,28.07v104.36c-15.78-11.15-31.54-17.34-51.22-19.43l-.11-98.98c-1.45-19.17-13.04-34.96-30.19-42.82-11.47,45.55-29.76,91.74-63.32,124.32-22.06,21.42-54.2,26.74-82.29,13.95-18-8.2-34.37-17.64-51.43-28.86v-.02h-.01ZM727.02,478.37l-65.93-83.56c-21.01-26.63-56.83-53.52-90.96-58.26-27.44-3.81-51.9,8.87-64.55,32.98-28.08,53.51-16.07,119.86,29,160.27,28.03,25.15,66.65,31.8,102.03,18.86,35.75-13.66,65.65-40.51,90.42-70.29h0ZM935.81,482.95c-2.38-16.74-8.75-30.72-16.08-44.87-8.67-14.98-18.67-27.94-30.39-40.83-16.16-16.67-33.66-31.24-53.25-44.3l-75.58,97.88c22.46,34.14,54.71,59.99,93.01,72.4,16.72,5.42,34.13,7.93,50.78,4.51,21.3-4.37,34.6-22.89,31.49-44.8h.01Z"/>
  <path class="cls-1" d="M1894.26,486.05l-71.05-331.78-84.57,401.42-17.71.31-31.89-162.49c-5.83,48-19.85,107.25-54.55,143.14-9.83,10.17-22.26,19.16-36.97,19.2l-172.59.41c9.83-4.77,19.32-7.77,27.31-14.51,11.03-9.3,17.82-21.73,17.88-36.6l.36-80.69,49.14-72.67.83,154.64c.07,12.87,3.05,24.34,13.68,32.23,14.08-12.76,24.2-29.27,28.3-48.68l92.08-435.41c7.37-.38,13.2-.38,20.64.06l76.78,392.26,83.04-392.33,20.54-.31,92.08,435.37c4.04,19.08,13.35,34.82,27.28,48.11,4.03-7.37,9.53-15.29,9.53-25.4l.03-462.85,106.9-.07c1.3.65,2.62,1.47,1.74,1.35l-39.05,17.4c-8.47,10.61-14.36,20.84-9.52,35.07l63.36,186.05c-13.18,13.1-26.42,24.07-42.95,35.97l-29.03-78.73-.86,111.5c55.74-26.08,100.71-68.54,131.3-121.9,15.7-27.38,28.02-55.76,38.92-85.34,6.39-17.35,12.48-42.36,8.94-60.57-.45-2.14-.67-4.25.5-1.45,12.49,20.63,1.65,67.65-5.55,89.41-30.15,91.14-92.43,187.23-174.53,240.74l.02,85.14c0,16.65,8.6,31.47,21.62,41.08,5.49,4.06,11.85,6.66,17,10.91l-201.77.08c-2.9,0-3.91-3.43-3.17-4.34s2.46-2.27,3.79-2.68c26.68-8.32,27.36-38.64,22.12-63.06v-.02h.01ZM1627.97,530.24c12-12.78,20.07-27.47,27.64-43.63,18.25-43.83,26.77-90.58,24.61-138.52l-37.57-192.49-69.27,328.94c-2.68,12.72-2.35,24.44-1.84,36.88,1.68,7.41,3.51,14.64,8.78,20.17,10.63,11.12,34.32,2.87,47.66-11.33v-.02Z"/>
  <path class="cls-1" d="M295.74,1477.25l-291.44.45c-2.06,0-4.99-5.05-4.16-6.38s3.47-4.04,5.49-4.64c42.31-12.63,60.56-60.01,60.56-102.24v-616.54c0-24.12-4.89-46.48-15.86-66.51C30.73,645.59-.2,646.17.76,640.88l1.33-7.26,286.98.17c28.38.02,54.13,2.94,81.64,8.05,120.41,22.29,222.48,99.75,276.19,210.11,79.48,163.3,57.29,377.42-71.75,509.2-71.85,73.38-173.82,115.92-279.42,116.09h0v.02ZM596.12,1194.07c19.22-98.8,10.71-198.08-22.94-291.55-34.11-94.77-95.71-179.46-187.16-224.96-37.27-17.51-76.09-27.61-117.53-27.68l-114.39-.18v812.01l147.01-.27c38.12-.07,73.18-8.11,108.39-21.21,103.49-43.79,165.24-136.25,186.64-246.17h0l-.02.02Z"/>
  <path class="cls-1" d="M2261.33,515.73c14.45,38.64,56.87,31.21,63.56,38.64.48.54-2.04,2.05-2.85,2.05l-204.45-.04,11.36-9.68c4.99-4.26,6-11.04,4.36-17.34l-45.05-133.96,40.83-43.37,54.35,155.71c5.48,15.7,26.62,30.56,41.91,36.42,19.48-16.95,22.85-39.4,22.85-64.5l.04-403.43c-9.86-11.15-26.89-20.25-39.07-24.33-1.1-.37-2.57-2.24-2.76-2.84-.28-.9,2.05-1.81,3.35-1.81l90.22.06,84.75,192.31c-10.57-48.31-19.43-112.57,2.8-158.06,9.85-20.62,28.03-33.49,52.15-33.98,28.36-.58,66.68-.28,90.58-.25,1.88,0,3.03,2.74,2.59,3.02s-1.86,1.31-2.5,1.5c-26.35,8.06-37.4,35.94-37.41,62.18l-.08,442-22.33.08-191.78-432.78c-6.29-14.18-14.08-26.65-23.01-38.84v402.35c0,10.45,2.16,19.85,5.54,28.87h.02,0ZM2408.33,291.21l76.92,174.7.07-346.99c0-13.77-2.42-26.14-7.02-38.03-6.91-16.46-21.29-25.63-38.84-25.62-16.06,0-29.19,6.74-38.7,19.78-24.07,32.99-20.45,82.86-16.62,122.2,6.37,31.72,10.78,63.48,24.2,93.96h-.01Z"/>
  <path class="cls-1" d="M1046.04,886.64c22.14-49.02,62.89-137.47,43.97-189.08,26.7,34.79,7.73,117.03-5.5,156.87-50.21,151.15-153.03,308.08-287.9,396.52l-.07,135.45c0,25.62,9.04,48.56,27.75,65.82,10.82,9.99,23.74,15.61,37.16,24.84h-200.55c27.88-15.93,52.53-39.25,52.57-72.81l.58-616.14.37-148.6,178.61,2.29-64.17,29.36c-13.03,16.96-23.74,34.66-16.06,57.12l105.01,308.54c-23.17,22.26-45.15,40.9-71.09,58.98l-47.56-128.84-1.71,183.45c118.31-57.57,194.1-143.12,248.6-263.71v-.05h0Z"/>
  <path class="cls-1" d="M1127.89,554.92l-222.32-.83,19.69-10.41c8.88-4.31,18.12-6.88,26.86-11.87,23.68-13.53,41.69-37.93,41.88-65.65l.71-103.46.09-109.35c18.24.09,34.61,5.46,50.64,13.85v235.91c21.15,2.62,42.06-1.2,61.27-11.18l140.81-102.4-119.62,165.39h0Z"/>
  <path class="cls-1" d="M1198.94,475.22l38-51.99c4.66-4.57,9.65-8.69,15.37-12.4l.1,107.24c31.31-4.7,61.02-12.48,90.59-22.72l139.68-109.45-114.13,170.8-220.09-.21c6.14-3.68,11.27-4.83,16.97-7.03,33.13-14.49,35.37-39.73,33.52-74.24h-.01Z"/>
  <path class="cls-1" d="M1939.46,917.44l-11.84-104.87c-2.91-25.82-21.21-45.45-44.84-55.56-14.16-6.05-27.28-7.3-44.8-11.92l35.91-9.61c51.2-13.71,57.85-65.37,60.41-111.23l2.79-50.09c.28-5.04.75-9.31,3.64-12.34l2.13,35.23c3.01,49.71-1.96,124.83,66.46,140.09,10.56,2.34,20.53,4.84,31.37,8.15-20.03,4.56-35.59,6.47-51.68,14.63-22.29,12.4-36.94,32.75-40.21,58.3l-9.34,99.25v-.03h0Z"/>
  <path class="cls-1" d="M1495.76,210.4c-1.75-19.14-2.98-37.52-5.83-56.42-2.16-14.41-11.18-25.77-23.84-32.23-9.89-5.05-19.63-6-31.61-8.69l23.46-6.07c25.74-6.65,34.08-33.21,35.32-57l1.78-34.18c.29-5.66,1-10.78,2.52-15.82,5.26,36.51-6.99,96.02,40.9,107.91l20.64,5.12c-11.06,2.57-19.87,3.27-29.21,7.64-14.38,6.72-25.53,19.73-26.96,36.13l-5.38,62.16c-.67-2.48-1.57-5.81-1.83-8.57h.02Z"/>
  <path class="cls-1" d="M1470.95,380.75l-.64-32.44c29.95-24.72,40.25-53.34,47.88-90.82.8,7.17,1.5,14.62,1.52,22.33l.13,62.5-48.89,38.44h-.01Z"/>
  <path class="cls-1" d="M2144.01,164c-2.83,11.41-8.17,19.75-15.45,27.95l-16.02,18.08c.71-34.31,42.45-163.34,91.35-133.77-8.85-2.16-16.93-1.7-23.72,4.45-13.2,11.98-22.37,27.52-26.72,45.1l-9.45,38.2h.01Z"/>
  <path class="cls-1" d="M976.87,831.23c-4.07,16.19-11.17,29.87-22.14,40.95l-29.59,34.41c7.2-59.9,25.7-115.42,54.14-166.42,17.87-32.05,58.85-83.67,98.53-54.31-14.15-5.34-26.7-4.54-38.55,4.51-22.16,18.98-38.09,44.15-45.35,73.08l-17.06,67.78h.02v.02Z"/>
  <path class="cls-1" d="M2932.92,1634.87v4.28c-.31,1.1-.36,2.21-.43,3.47-.4,6.35-2.61,12.47-6.13,17.62-3.98,5.8-10.7,7.63-17.18,4.83-4.86-2.1-8.87-6.19-9.63-4.59-1.48,3.11-4.1,5.19-6.98,6.96-10.54,5.62-24.65,6.53-36.26,2.27-10.1,3.35-20.43,6.04-31.52,6.05l-71.61.12-2.09-.8c-5.17-2.01-9.45-4.9-12.41-9.64-3.01-4.83-4.96-10-6.84-15.59-.46,8.44-3.89,16.66-9.57,23.1-2.49,2.82-5.74,3.47-9.37,2.53-7.85-2.03-14.93-6.11-21.67-10.85-5.38,5.34-12.52,10.75-20.45,11.31-8.14-.83-15.9-3.04-23-7.24-.7,1.97-1.13,3.9-2.28,5.54s-3.98,2.18-5.95,1.79c-7.26-1.42-19.49-5.56-24.9-11.09-4.07,5.95-8.14,11.7-16.26,10.92-5.8-.55-12.09-1.16-14.84-7.3-3.53-7.87-5.19-21.04-6.35-29.97l-8.35-63.98c-.7-5.34-2.64-10.18-2.7-15.51,0-.89,1.76-17.45,3.96-17.72,2.44,5.81,3.93,11.6,4.77,17.85l4.43,33.27,4.74,35.49c.89,6.74,2.12,13,3.47,19.61,1.16,5.65,5.34,9.78,11.39,10.4,3.9.42,9.05.31,12.61-1.54,5.44-2.83,11.34-17.53,15.02-20.79,3.93-3.49,10.33-1.27,13.41,2.12l8.91,9.72c4.98,5.43,12.27,8.97,19.64,10.49,4.78.98,10.19-.42,14.38-2.53l10.6-5.34c8.21,3.47,17.3,9.27,26.08,7.84,3.92-.64,6.53-3.64,6.54-7.72.01-5.19-.64-10.18-1.34-15.44l-6.39-47.5c-1.4-10.37-2.19-20.33-1.86-30.76.09-2.95,1.76-15.38,5.25-15.53.85.7,1.24,2.41,1.25,3.56.09,8.26.7,16.16,1.91,24.31l3.11,20.9c2.61,17.45,6.54,34.38,12.24,51.03,1.7,4.95,3.99,9.3,7.45,13.15,1.56,1.73,4.07,4.2,6.68,4.2h70.96c8.94-.01,17.41-1.8,25.77-4.53,4.69-1.52,9.21-4.35,11.79-8.48,1.83-2.94,2.73-9.6,5.6-9.91.43,2.71.52,5.08-.12,7.39l-2.64,9.75c2.27.61,4.37.79,6.74.73,10.73-.22,23.68-.95,27.63-12.86,1.65-4.96,3.06-11.61,8.29-13.26.55,1.71.6,3.35.25,4.89l-2.25,10.15c3.86,4.25,6.63,5.5,12.82,5.6,1.18.01,2.82-1,4.16-1.45.88-6.21-3.1-3.7-.15-10.6,1.59-3.73,2.94-7.66,3.79-11.54.07-.34.58-.94.88-.98,2-.34,4.81,10.02,4.96,11.77l.04.04ZM2631.35,1653.34l9.85,3.86c-1.21-4.55-6.44-14.49-11.34-13.47-1.15.24-2.53,1.37-3.03,2.62l-1.85,4.66s6.36,2.33,6.36,2.33Z"/>
  <path class="cls-1" d="M2037.73,1685.95v-7.27c.25-.6.54-1.4.6-1.92.63-5.93,1.52-11.57,3.35-17.18.72-2.21,3.73-9.2,6.39-7.44s.43,9.85-.54,12.68c-1.39,4.05-1.7,7.85-1.04,12.1,2.22,14.35,13.13,25.14,28.47,22.5,11.15-1.92,28.23-8.91,34.56-19.26.18-9.03-1.12-17.85-4.75-26.2l-11.52-16.02,4.74-17.44c.45-1.64,2.47-2.47,3.87-1.8,6.38,9.85,11.39,23.97,14.23,35.22,3.86,15.26,1.21,28.51-4.62,42.74-9.14,14.92-27.71,23.82-45.05,23.28-17.35-.54-26.51-16.44-28.06-31.69-.07-.8-.37-1.73-.64-2.3h.01Z"/>
  <path class="cls-1" d="M2485.83,1685.95v-7.27c.25-.6.54-1.4.6-1.92.63-5.93,1.52-11.57,3.35-17.18.72-2.21,3.73-9.2,6.39-7.44s.43,9.85-.54,12.68c-1.39,4.05-1.7,7.85-1.04,12.1,2.22,14.35,13.13,25.14,28.47,22.5,11.15-1.92,28.23-8.91,34.56-19.26.18-9.03-1.12-17.85-4.75-26.2l-11.52-16.02,4.74-17.44c.45-1.64,2.47-2.47,3.87-1.8,6.38,9.85,11.39,23.97,14.23,35.22,3.86,15.26,1.21,28.51-4.62,42.74-9.14,14.92-27.71,23.82-45.05,23.28-17.35-.54-26.51-16.44-28.06-31.69-.07-.8-.37-1.73-.64-2.3h.01Z"/>
  <path class="cls-1" d="M2267.44,1658.21h-114.82l-.04,17.66h117.16c2.97,0,6.69-1.56,10.22-3.68-.64-5.1-.67-10.45-1.25-15.63-3.56,1.25-7.21,1.65-11.27,1.65h0Z"/>
  <path class="cls-1" d="M2356.7,1623.69c-8.75-1.25-12.5,10.1-17.77,15.53-.39.48-1.39,1.97-1.79,2.34-3.04,2.85-5.8,6.3-8.48,9.55-3.61,4.38-9.09,6.93-14.78,7.02-5.77.07-16.29-5.47-22.04-8.03l-9.87,5.07c-1.09.55-2.16,1.01-3.25,1.4.58,5.2.61,10.55,1.25,15.63,3.86-2.31,7.47-5.28,9.54-7.6,5.14,3.89,18.63,11.57,24.76,11.16,5.5-.36,10.63-3.53,13.29-8.23,2.22-3.92,4.28-7.57,6.89-11.46,6.72,4.78,16.57,7.48,24.62,7.27,3.41-.09,8.52-9.6,9.2-14.75,1.07-8.21-1.7-23.49-11.57-24.9ZM2344.24,1642.22c1.12-2.21,2.95-4.08,5.53-4.56,2.89-.54,5.9.82,6.57,3.8l1.25,5.66c-5.08-.25-9.12-2.1-13.34-4.9h-.01Z"/>
  <path class="cls-1" d="M2379.02,1659.18c4.47,8.47,27.71,1.37,34.76-1.06,2.21-.76,7.24-2.74,5.84-5.72-3.61-7.62-8.15-14.52-13.91-20.64-3.76-3.99-10.3-9.48-15.54-4.74-.91-.27-1.89-1.45-2.19-2.47-1.36-4.78-1-9.66.89-14.26,1.77-4.29,6.36-7.02,11-5.68,1.49.43,3.14,1.74,4.43,2.85,9.93,8.55,17.18,19.61,20.88,32.24,3.11,10.63,3.7,22.27-3.16,31.49-1.12,1.49-3.29,2.71-5.07,3.52-9.57,4.34-19.66,7.33-30.06,8.3-5.1.48-9.08-2.06-10.97-6.68-1.89-4.62-3.67-18.66,3.1-17.14h0Z"/>
  <path class="cls-1" d="M2152.58,1675.87c-6.68-.24-14.96-1.64-17.53-7.9-3.4-8.3-4.9-20.33-6.1-29.48l-8.35-63.92c-.7-5.34-2.64-10.22-2.68-15.54,0-.94,1.76-17.12,3.92-17.72,2.52,5.8,3.96,11.6,4.81,17.84l3.92,29.09,5.32,40.03c.88,6.62,2.12,12.82,3.44,19.3,1.16,5.69,7.42,9.82,13.29,10.64l-.04,17.66h-.01Z"/>
  <path class="cls-1" d="M2088.42,1589.56c-.72,2.71-3.43,13.18-6.54,12.61-4.05-.73-12.7-2.82-14.02-6.68-.25-.76.48-2.04.91-3l4.28-9.39c.98-2.15,3.04-2.7,4.96-1.77l7.84,3.8c1.45.7,3,2.83,2.58,4.44h0Z"/>
  <path class="cls-1" d="M2536.36,1597.73c-1.27,3.71-3.22,11.85-6.62,11.16-3.9-.79-12.31-2.79-13.67-6.56-.25-.7.4-1.95.8-2.82l4.41-9.69c.88-1.95,2.88-2.71,4.69-1.83l8.09,3.9c2.31,1.12,3.06,3.61,2.31,5.83h-.03Z"/>
  <path class="cls-1" d="M2299.38,1691.25c-.63,3.41-3.74,15.11-9.11,11.95-3.92-2.3-7.26-5.37-9.73-9.14,2.13-4.71,4.13-8.82,7.06-13.22,2.92.82,12.34,7.39,11.79,10.4h-.01Z"/>
  <path class="cls-1" d="M2701.86,1692.85c-.67,3.46-3.59,15.4-9.15,12.19-3.86-2.22-6.99-5.22-9.7-8.97,1.98-4.68,4.08-9.11,7.18-13.43,3.25,1.34,11.51,6.98,11.65,10.19h.02Z"/>
  <path class="cls-1" d="M2677.64,1711.79c-1.83,3.28-11.12-3.7-13.23-5.07-1.22-1.21-1.88-2.82-1.18-4.49,1.67-4.02,3.52-7.72,5.95-11.43,4.66,2.83,8.38,5.84,12.07,9.57-.45,4.22-1.59,7.82-3.59,11.42h-.01Z"/>
  <path class="cls-1" d="M2275.22,1709.85c-1.85,3.41-11.09-3.59-13.25-4.96-1.4-1.3-1.86-3.06-1.1-4.86,1.62-3.82,3.4-7.26,5.74-11.07,4.56,2.73,8.55,5.74,12.1,9.63-.21,3.99-1.65,7.84-3.49,11.25h0Z"/>
</svg>