<?xml version="1.0" encoding="UTF-8"?>
<svg id="Layer_1" xmlns="http://www.w3.org/2000/svg" version="1.1" viewBox="0 0 1807.22 386.56">
  <!-- Generator: Adobe Illustrator 30.1.0, SVG Export Plug-In . SVG Version: 2.1.1 Build 136)  -->
  <defs>
    <style>
      .st0 {
        fill: #264257;
      }
    </style>
  </defs>
  <path class="st0" d="M1248.38,381.82l-6.91-.15c3.66-2.95,8.75-6.27,6.87-11.88l-20.38-60.7,18.49-19.7,24.55,70.63c2.63,5.63,6.79,9.7,12.19,12.81,6.08-5.96,10.01-13.19,11.8-21.66l41.41-195.96c3.09-.53,6.01-.5,9.44-.07l34.68,177.47,37.52-177.42c3.24-.49,6-.45,9.42-.06l41.56,196.52c2.26,10.67,10.37,24,21.6,26.97,7.75-3.13,13.85-10.66,13.86-19.46l.08-71.42c8.15-6.62,13.68-14.83,17.26-24.49,1.56-4.2,3.86-13.08,4.28-16.98.45-4.16.79,8.07.8,8.56l.46,106.99c.04,8.98,9.92,16.56,14.38,16.76,3.78.17,7.41-3.33,9.69-5.92,5.99-6.82,7.49-15.73,7.49-24.77v-165.72c0-12.58-2.75-27.07-15.93-31.71-.87-.31-1.8-.73-2.32-1.03s-.02-2.39.62-2.39h158.34c.54.24.96.95,1.14,1.35l6.84,15.57.34.76.34.77.36.81,15.34,34.82.36.83,12.55,28.57c.49.9.55.77.29-.24-4.32-21.32-7.29-50.71,4.11-70.1,4.67-7.95,12.95-12.94,22.41-12.98l41.07-.17c.84,0,1.73.12,2.22.23s.11,2.37-.54,2.55c-9.84,2.67-15.91,12.07-16.98,22.22-.44,4.15-.73,7.96-.73,12.36v196.91c-.92.92-10.16.66-10.78.15s-1.01-1.7-1.57-2.95l-30.14-68.06-.4-.91-49.25-111.22c-2.15-4.86-8.28-18.89-10.4-22.43l-5.37-8.98c-.54-.08-.86-.13-1.02-.12l.02,179.14c0,13.08,3.46,26.04,17.06,30.2,4.32,1.32,8.88,2.09,13.4,2.89.61.11,1.55,1.26,1.44,1.81-.14.69-1.62,1.01-2.64,1.01l-40.56.08h-128.35l-105.42-.06c-.6,0-1.69-.62-1.68-1.04.09-3.12,5.02-1.83,8.77-6.72,1.91-2.5,3.42-5.44,3.79-8.6.53-4.54.54-9.03-.49-13.86l-32.45-151.67-37.48,178.1-.23,1.07c-.15.73-.25,2.27-.85,2.45s-2.09.31-2.77.3h-1.2l-1.1-.02h-1.11c-.68.02-1.55-.22-1.68-.9l-.2-1.03-10.9-55.69-2.25-11.5-.17-.89c-.05-.28-.16-.69-.17-.89l-.07-.98-.08-.97c-.82-.89-.91-.73-.6.39-2.62,22.32-10.11,51.64-27.68,66.59-4.53,3.85-9.77,5.84-15.81,5.84h-60.02.04ZM1675.43,351.54l.09-190.68c-3.23-3.26-6.87-5.82-10.3-7.67l.03,68.18c0,.67-1.23,1.56-1.8,1.45s-1.04-1.14-1.14-1.95c-2.43-20.46-6.3-52-24.12-64.65-4.65-2.85-9.78-4.76-15.48-4.77l-39.32-.06v71.9l17.53-.07c4.69-.02,9.36-.62,13.77-1.82,7.18-1.95,9.15-9.45,8.62-15.85l-1.88-22.99c.93-.4,2.17-.35,3,.17l42.42,191.02c5.82-5.84,8.57-13.58,8.57-22.21h.01ZM1750.23,259.59l34.07,77.4.07-159.21c0-5.57-1.42-10.57-3.41-15.21-2.98-6.97-9.28-10.69-16.65-10.8-6.87-.1-12.66,2.43-16.95,7.88-4.36,5.54-7.13,12.14-8.24,19.36-1.81,11.73-1.94,23.31-.15,35.3,2.29,15.34,4.82,30.69,11.25,45.29h.01ZM1323.47,371.11c5.92-5.99,9.71-12.75,13.26-20.26,8.42-19.85,12.26-41.07,11.43-62.83l-17.04-87.55-31.67,150.37c-.77,6.64-1.21,12.53.29,18.74,1.25,3.05,2.7,6.42,6.08,7.3,6.47,1.67,12.74-1.08,17.64-5.77h.01ZM1646.54,304.17l-11.48-51.05c-1.1-4.88-3.73-9.32-5.85-13.69-2.24-4.6-6.22-7.31-10.8-9.28-10.75-3.35-23.85-2.38-35.02-2.43v149.86l42.59-.1c5.36-.01,9.97-2.47,13.73-5.73,8.59-9.17,10.84-24.55,10.36-36.68-.41-10.43-1.16-20.39-3.53-30.9h0Z"/>
  <path class="st0" d="M136.06,210.4l-28.54-18.76c-10.8-7.1-21.06-14.2-32.27-20.7-3.2-1.86-7.89-1.04-10.95.42s-4.43,4.89-4.29,8.2c.45,10.61,11.47,24.2,19.49,30.15,10.46,7.76,21.11,14.83,32.95,20.53l68.88,33.14c13.3-15.14,31.71-34.02,53.56-33.86,10.83.08,26.56,5.48,30.97,17.95-8.78-4.06-17.05-7.35-26.61-7.41-20.73-.12-37.3,12.22-51.46,26.34,14.94,8.51,27.69,17.38,36.73,31.7,14.01,22.19,9.39,50-10.1,67.19-12.47,11-28.55,16.09-45.15,12.3-18.22-3.51-36-15.84-48.9-28.9-8.31,8.34-16.59,17.1-26.05,24.7-22.32,17.94-54.02,16.47-74.49-3.52-9.77-9.55-16.08-21.94-18.59-35.6-4.95-26.87,5.32-54.56,26.57-71.55,18.06-14.45,41.3-12.48,57.61,3.44,6.24,6.86,11.89,13.58,16.98,21.42l28.39,43.8,32.43-44.51c-12.74-8.57-25.44-16.13-39.04-22.66l-22.22-10.66c-12.9-6.02-24.39-14.05-33.96-24.61-10.79-11.91-18.15-28.28-16.04-44.64,1.96-15.14,14.25-26.8,29.98-26.64,13.86.14,27.88,3.22,39.95,10.14l44.69,25.61c9.61,5.51,20.71,4.36,29.53-1.94,5.31-3.8,9.76-8.2,13.82-13.39l13.92-17.8c-2.02-.92-3.37-1.4-5.51-2.81l89.72-.05,24.09.26,58.21.15,55.61,77.49-68.15-49.49c-12.79-4.75-26.44-5.59-40.21-3.77l58.97,77.9c4.39,5.8,9.81,10.24,15.39,14.62l14.8,11.62-20.84.27-36.41.54c-6.82.14-8.92,5.98-12.87,9.9-7.38,7.33-16.66,12.27-25.03,19.16l-.65-35.91c-.12-6.65-2.92-12.59-3.82-19.4l10.12,5.4c4.56,2.43,9.86,4.09,15.12,3.95l20.08-.54-58.83-84.61c-4.91-7.06-11.18-13.18-18.75-17.13-9.64-5.04-22.34-1.87-29.23,6.12-2.98,3.46-2.76,8.6-3.59,12.7v47.2c-7.14-5.04-14.27-7.84-23.17-8.79l-.05-44.77c-.65-8.67-5.9-15.82-13.66-19.37-5.19,20.6-13.46,41.5-28.64,56.23-9.98,9.68-24.52,12.1-37.22,6.31-8.14-3.71-15.54-7.98-23.26-13.06h0ZM117.91,346.63l-29.82-37.79c-9.5-12.04-25.7-24.21-41.14-26.35-12.41-1.72-23.47,4.01-29.2,14.92-12.7,24.2-7.27,54.21,13.11,72.49,12.68,11.37,30.15,14.38,46.15,8.53,16.17-6.18,29.7-18.33,40.9-31.79h0ZM212.34,348.7c-1.08-7.57-3.96-13.9-7.27-20.3-3.92-6.78-8.44-12.64-13.74-18.47-7.31-7.54-15.22-14.13-24.09-20.04l-34.18,44.27c10.16,15.44,24.75,27.14,42.07,32.75,7.56,2.45,15.44,3.59,22.97,2.04,9.63-1.98,15.65-10.35,14.24-20.26h0Z"/>
  <path class="st0" d="M645.86,350.11l-32.13-150.07-38.25,181.57-8.01.14-14.42-73.5c-2.64,21.71-8.98,48.51-24.67,64.75-4.45,4.6-10.07,8.67-16.72,8.69l-78.06.19c4.45-2.15,8.74-3.52,12.35-6.56,4.99-4.2,8.06-9.83,8.09-16.55l.16-36.5,22.23-32.87.38,69.94c.03,5.82,1.38,11.01,6.19,14.57,6.37-5.77,10.94-13.24,12.8-22.02l41.65-196.94c3.33-.17,5.97-.17,9.34.03l34.73,177.43,37.56-177.46,9.29-.14,41.65,196.92c1.83,8.63,6.04,15.75,12.34,21.76,1.82-3.33,4.31-6.92,4.31-11.49l.02-209.35,48.35-.03c.59.29,1.19.66.79.61l-17.67,7.87c-3.83,4.8-6.5,9.43-4.31,15.86l28.66,84.15c-5.96,5.92-11.95,10.89-19.43,16.27l-13.13-35.61-.39,50.44c25.21-11.8,45.55-31,59.39-55.14,7.1-12.38,12.68-25.22,17.6-38.6,2.89-7.85,5.64-19.16,4.04-27.4-.2-.97-.31-1.92.23-.66,5.65,9.33.75,30.6-2.51,40.44-13.64,41.22-41.81,84.69-78.94,108.89v38.51c.01,7.53,3.9,14.24,9.79,18.58,2.49,1.84,5.36,3.01,7.69,4.94l-91.26.04c-1.32,0-1.77-1.55-1.44-1.96s1.11-1.03,1.72-1.21c12.06-3.76,12.37-17.48,10.01-28.52h-.02ZM525.42,370.09c5.43-5.78,9.08-12.43,12.5-19.73,8.26-19.83,12.11-40.97,11.13-62.66l-17-87.07-31.33,148.78c-1.21,5.75-1.07,11.06-.83,16.68.76,3.35,1.59,6.63,3.97,9.12,4.81,5.03,15.52,1.3,21.56-5.12h0Z"/>
  <path class="st0" d="M1066.43,381.82l-79.84.12c-.56,0-1.37-1.38-1.14-1.75s.95-1.11,1.5-1.27c11.59-3.46,16.59-16.44,16.59-28.01v-168.9c0-6.61-1.34-12.73-4.35-18.22-5.37-9.81-13.84-9.65-13.58-11.09l.36-1.99,78.62.05c7.78,0,14.83.81,22.37,2.2,32.99,6.11,60.95,27.33,75.66,57.56,21.78,44.74,15.69,103.39-19.66,139.49-19.68,20.1-47.62,31.76-76.55,31.8h.02ZM1148.72,304.24c5.27-27.07,2.93-54.26-6.29-79.87-9.35-25.96-26.22-49.16-51.27-61.63-10.21-4.79-20.85-7.57-32.2-7.58l-31.34-.05v222.45l40.27-.07c10.44-.02,20.05-2.22,29.69-5.81,28.35-12,45.27-37.32,51.13-67.44h.01Z"/>
  <path class="st0" d="M811.89,363.53c6.54,17.48,25.73,14.11,28.75,17.48.22.25-.92.93-1.29.93l-92.47-.02,5.14-4.38c2.26-1.93,2.71-4.99,1.97-7.84l-20.38-60.59,18.47-19.62,24.58,70.43c2.48,7.1,12.04,13.82,18.96,16.48,8.81-7.67,10.33-17.82,10.34-29.17l.02-182.48c-4.46-5.04-12.16-9.16-17.67-11.01-.49-.17-1.16-1.01-1.25-1.29-.13-.41.93-.82,1.52-.82l40.81.03,38.33,86.99c-4.78-21.85-8.79-50.91,1.27-71.49,4.45-9.32,12.68-15.15,23.59-15.37,12.83-.26,30.16-.13,40.97-.11.85,0,1.37,1.24,1.17,1.36s-.84.59-1.13.68c-11.92,3.65-16.92,16.26-16.92,28.12l-.04,199.92-10.1.04-86.74-195.75c-2.84-6.42-6.37-12.05-10.41-17.57v181.99c0,4.73.98,8.98,2.51,13.06h0ZM878.38,261.98l34.79,79.02.03-156.94c0-6.23-1.09-11.82-3.18-17.2-3.12-7.45-9.63-11.59-17.57-11.59-7.26,0-13.2,3.05-17.5,8.94-10.89,14.92-9.25,37.48-7.51,55.27,2.88,14.35,4.87,28.71,10.95,42.5h-.01Z"/>
  <path class="st0" d="M1271.97,220.02c6.07-13.43,17.23-37.66,12.05-51.8,7.31,9.53,2.12,32.06-1.51,42.97-13.75,41.41-41.92,84.4-78.87,108.62l-.02,37.11c0,7.02,2.48,13.3,7.6,18.03,2.96,2.74,6.5,4.27,10.18,6.8h-54.94c7.64-4.36,14.39-10.75,14.4-19.95l.16-168.79.1-40.71,48.93.63-17.58,8.04c-3.57,4.64-6.5,9.5-4.4,15.65l28.77,84.52c-6.35,6.1-12.37,11.2-19.47,16.16l-13.03-35.3-.47,50.26c32.41-15.77,53.18-39.21,68.1-72.24h0Z"/>
  <path class="st0" d="M299.22,381.26l-100.56-.37,8.91-4.71c4.02-1.95,8.2-3.11,12.15-5.37,10.71-6.12,18.86-17.16,18.94-29.69l.32-46.8.04-49.46c8.25.04,15.66,2.47,22.91,6.26v106.7c9.56,1.19,19.03-.54,27.71-5.05l63.69-46.32-54.11,74.81h0Z"/>
  <path class="st0" d="M331.36,345.21l17.19-23.52c2.11-2.07,4.37-3.93,6.95-5.61l.04,48.51c14.16-2.12,27.6-5.64,40.97-10.28l63.18-49.51-51.62,77.25-99.55-.1c2.78-1.66,5.1-2.19,7.67-3.18,14.99-6.55,16-17.97,15.16-33.58v.02Z"/>
  <path class="st0" d="M1516.72,228.46l-3.24-28.73c-.8-7.07-5.81-12.45-12.28-15.22-3.88-1.66-7.47-2-12.27-3.27l9.83-2.63c14.03-3.76,15.85-17.91,16.55-30.47l.77-13.72c.08-1.38.21-2.55,1-3.38l.58,9.65c.82,13.62-.54,34.2,18.21,38.38,2.89.64,5.63,1.33,8.59,2.23-5.49,1.25-9.75,1.77-14.16,4.01-6.11,3.4-10.12,8.97-11.02,15.97l-2.56,27.19h0Z"/>
  <path class="st0" d="M465.62,225.43c-.79-8.66-1.35-16.97-2.64-25.52-.98-6.52-5.06-11.65-10.78-14.58-4.47-2.28-8.88-2.72-14.3-3.93l10.61-2.74c11.64-3.01,15.42-15.02,15.98-25.78l.81-15.46c.13-2.56.45-4.87,1.14-7.16,2.38,16.51-3.16,43.43,18.5,48.81l9.34,2.32c-5,1.16-8.99,1.48-13.21,3.45-6.5,3.04-11.55,8.93-12.19,16.34l-2.43,28.12c-.3-1.12-.71-2.63-.82-3.87h-.01Z"/>
  <path class="st0" d="M454.39,302.48l-.29-14.67c13.55-11.18,18.21-24.13,21.66-41.08.36,3.24.68,6.61.69,10.1l.06,28.27-22.11,17.38h-.01Z"/>
  <path class="st0" d="M758.82,204.44c-1.28,5.17-3.7,8.93-6.99,12.64l-7.25,8.17c.32-15.52,19.2-73.88,41.32-60.5-4-.98-7.66-.77-10.72,2.01-5.97,5.42-10.12,12.45-12.09,20.4l-4.27,17.28h0Z"/>
  <path class="st0" d="M1253.02,204.84c-1.12,4.44-3.06,8.18-6.07,11.22l-8.1,9.43c1.97-16.41,7.04-31.62,14.83-45.59,4.9-8.78,16.12-22.92,26.99-14.88-3.88-1.46-7.31-1.24-10.56,1.24-6.07,5.2-10.43,12.1-12.42,20.02l-4.67,18.57h0Z"/>
  <path class="st0" d="M1799.42,86.46v1.57c-.12.4-.13.81-.16,1.27-.15,2.33-.95,4.57-2.25,6.45-1.46,2.13-3.92,2.8-6.3,1.77-1.78-.77-3.25-2.27-3.53-1.68-.54,1.14-1.5,1.9-2.55,2.55-3.86,2.06-9.03,2.39-13.29.83-3.71,1.23-7.49,2.21-11.55,2.22l-26.24.04-.76-.3c-1.9-.74-3.47-1.8-4.55-3.54s-1.82-3.66-2.51-5.72c-.17,3.09-1.43,6.11-3.5,8.47-.91,1.03-2.11,1.27-3.43.93-2.88-.74-5.47-2.24-7.94-3.98-1.97,1.95-4.59,3.94-7.49,4.15-2.98-.31-5.83-1.11-8.43-2.66-.26.72-.42,1.43-.84,2.03s-1.46.8-2.18.66c-2.66-.52-7.14-2.04-9.13-4.06-1.49,2.18-2.98,4.29-5.96,4-2.12-.2-4.43-.43-5.44-2.68-1.3-2.89-1.9-7.71-2.33-10.98l-3.06-23.45c-.25-1.95-.96-3.73-.99-5.68,0-.33.64-6.39,1.45-6.5.9,2.13,1.44,4.25,1.75,6.54l1.62,12.19,1.74,13.01c.33,2.47.77,4.76,1.28,7.19.43,2.07,1.95,3.58,4.17,3.81,1.43.15,3.31.12,4.62-.56,2-1.04,4.16-6.42,5.51-7.62,1.44-1.28,3.78-.46,4.92.77l3.27,3.56c1.82,1.99,4.5,3.29,7.2,3.85,1.75.36,3.74-.15,5.27-.93l3.88-1.95c3.01,1.27,6.34,3.4,9.56,2.87,1.44-.24,2.39-1.33,2.4-2.83,0-1.9-.23-3.73-.49-5.66l-2.34-17.41c-.51-3.8-.8-7.45-.68-11.28.03-1.08.65-5.64,1.92-5.69.31.26.45.88.46,1.31.03,3.03.25,5.92.7,8.91l1.14,7.66c.96,6.39,2.4,12.6,4.48,18.7.62,1.82,1.46,3.41,2.73,4.82.57.64,1.49,1.54,2.45,1.54h26.01c3.28,0,6.38-.66,9.44-1.66,1.72-.56,3.38-1.6,4.32-3.11.67-1.08,1-3.52,2.05-3.63.16,1,.19,1.86-.04,2.71l-.97,3.57c.83.22,1.6.29,2.47.27,3.93-.08,8.68-.35,10.13-4.71.6-1.82,1.12-4.25,3.04-4.86.2.63.22,1.23.09,1.79l-.83,3.72c1.42,1.56,2.43,2.02,4.7,2.05.43,0,1.03-.37,1.52-.53.32-2.28-1.14-1.36-.05-3.89.59-1.37,1.08-2.81,1.39-4.23.03-.12.21-.34.32-.36.73-.12,1.76,3.67,1.82,4.32ZM1688.9,93.23l3.61,1.41c-.44-1.67-2.36-5.31-4.16-4.94-.42.09-.93.51-1.11.96l-.68,1.71,2.33.85Z"/>
  <path class="st0" d="M1471.34,105.19v-2.67c.09-.22.2-.52.22-.71.23-2.17.56-4.24,1.23-6.3.26-.81,1.36-3.37,2.34-2.73s.16,3.61-.2,4.65c-.51,1.48-.63,2.88-.38,4.43.81,5.26,4.81,9.22,10.43,8.25,4.08-.7,10.34-3.27,12.67-7.06.06-3.31-.41-6.54-1.74-9.6l-4.22-5.87,1.74-6.39c.16-.6.91-.91,1.42-.66,2.34,3.61,4.17,8.78,5.21,12.91,1.41,5.59.44,10.45-1.69,15.67-3.35,5.47-10.15,8.73-16.51,8.53s-9.72-6.03-10.29-11.61c-.03-.29-.14-.63-.23-.84Z"/>
  <path class="st0" d="M1635.57,105.19v-2.67c.09-.22.2-.52.22-.71.23-2.17.56-4.24,1.23-6.3.26-.81,1.36-3.37,2.34-2.73s.16,3.61-.2,4.65c-.51,1.48-.63,2.88-.38,4.43.81,5.26,4.81,9.22,10.43,8.25,4.08-.7,10.34-3.27,12.67-7.06.06-3.31-.41-6.54-1.74-9.6l-4.22-5.87,1.74-6.39c.16-.6.91-.91,1.42-.66,2.34,3.61,4.17,8.78,5.21,12.91,1.41,5.59.44,10.45-1.69,15.67-3.35,5.47-10.15,8.73-16.51,8.53s-9.72-6.03-10.29-11.61c-.03-.29-.14-.63-.23-.84Z"/>
  <path class="st0" d="M1555.53,95.02h-42.08s-.01,6.47-.01,6.47h42.94c1.09,0,2.45-.58,3.75-1.35-.24-1.87-.25-3.83-.46-5.73-1.3.46-2.64.61-4.13.61Z"/>
  <path class="st0" d="M1588.24,82.37c-3.2-.46-4.58,3.7-6.51,5.69-.14.18-.51.72-.66.86-1.11,1.04-2.13,2.31-3.11,3.5-1.32,1.6-3.33,2.54-5.42,2.57-2.12.03-5.97-2.01-8.08-2.94l-3.62,1.86c-.4.2-.79.37-1.19.51.21,1.9.22,3.87.46,5.73,1.41-.84,2.74-1.93,3.5-2.79,1.88,1.42,6.83,4.24,9.07,4.09,2.02-.13,3.9-1.29,4.87-3.02.81-1.44,1.57-2.78,2.53-4.2,2.46,1.75,6.07,2.74,9.03,2.67,1.25-.03,3.12-3.52,3.37-5.41.39-3.01-.62-8.61-4.24-9.13ZM1583.68,89.16c.41-.81,1.08-1.5,2.03-1.67,1.06-.2,2.17.3,2.41,1.39l.46,2.08c-1.86-.1-3.34-.77-4.89-1.8Z"/>
  <path class="st0" d="M1596.42,95.37c1.64,3.1,10.16.5,12.74-.39.81-.28,2.66-1.01,2.14-2.1-1.32-2.79-2.99-5.32-5.1-7.56-1.37-1.46-3.77-3.48-5.7-1.74-.33-.1-.69-.53-.8-.91-.5-1.75-.37-3.54.33-5.23.65-1.57,2.33-2.57,4.03-2.08.55.16,1.15.64,1.62,1.04,3.64,3.13,6.3,7.19,7.65,11.82,1.14,3.89,1.36,8.16-1.16,11.54-.41.55-1.21.99-1.86,1.29-3.51,1.59-7.2,2.69-11.02,3.04-1.87.17-3.33-.75-4.02-2.45s-1.34-6.84,1.14-6.28Z"/>
  <path class="st0" d="M1513.43,101.49c-2.45-.08-5.49-.6-6.42-2.89-1.24-3.04-1.79-7.45-2.23-10.81l-3.06-23.43c-.26-1.96-.96-3.75-.99-5.7,0-.34.65-6.28,1.44-6.5.92,2.12,1.46,4.25,1.76,6.54l1.44,10.66,1.95,14.67c.32,2.43.77,4.7,1.26,7.08.43,2.08,2.72,3.6,4.87,3.9v6.47Z"/>
  <path class="st0" d="M1489.92,69.86c-.26,1-1.26,4.83-2.4,4.62-1.49-.27-4.65-1.03-5.14-2.45-.1-.28.17-.75.33-1.1l1.57-3.44c.36-.79,1.11-.99,1.82-.65l2.88,1.39c.53.26,1.1,1.04.95,1.63Z"/>
  <path class="st0" d="M1654.08,72.85c-.46,1.36-1.18,4.34-2.43,4.09-1.43-.29-4.51-1.02-5.01-2.4-.09-.26.15-.71.29-1.03l1.62-3.55c.32-.71,1.05-.99,1.72-.67l2.97,1.43c.84.41,1.12,1.32.84,2.13Z"/>
  <path class="st0" d="M1567.23,107.13c-.23,1.25-1.37,5.54-3.34,4.38-1.43-.84-2.66-1.97-3.57-3.35.78-1.72,1.51-3.23,2.59-4.84,1.07.3,4.52,2.71,4.32,3.81Z"/>
  <path class="st0" d="M1714.74,107.72c-.25,1.27-1.32,5.64-3.35,4.47-1.41-.82-2.56-1.91-3.56-3.29.73-1.72,1.49-3.34,2.63-4.92,1.19.49,4.22,2.56,4.27,3.74Z"/>
  <path class="st0" d="M1705.86,114.66c-.67,1.2-4.07-1.36-4.85-1.86-.45-.44-.69-1.03-.43-1.64.61-1.48,1.29-2.83,2.18-4.19,1.71,1.04,3.07,2.14,4.43,3.51-.17,1.55-.59,2.87-1.32,4.18Z"/>
  <path class="st0" d="M1558.38,113.95c-.68,1.25-4.06-1.32-4.85-1.82-.51-.48-.68-1.12-.4-1.78.6-1.4,1.24-2.66,2.1-4.06,1.67,1,3.14,2.1,4.43,3.53-.08,1.46-.6,2.87-1.28,4.13Z"/>
</svg>