<?xml version="1.0" encoding="UTF-8"?>
<svg id="Layer_1" xmlns="http://www.w3.org/2000/svg" version="1.1" viewBox="0 0 1843.05 1232.58">
  <!-- Generator: Adobe Illustrator 30.1.0, SVG Export Plug-In . SVG Version: 2.1.1 Build 136)  -->
  <defs>
    <style>
      .st0 {
        fill: #264257;
      }
    </style>
  </defs>
  <path class="st0" d="M615.9,1232.3l-15.16-.33c8.04-6.48,19.22-13.76,15.08-26.09l-44.76-133.3,40.61-43.26,53.91,155.08c5.77,12.37,14.92,21.31,26.77,28.13,13.35-13.08,21.97-28.97,25.9-47.57l90.94-430.29c6.78-1.16,13.2-1.09,20.73-.16l76.15,389.69,82.39-389.59c7.13-1.07,13.17-.99,20.68-.12l91.25,431.52c4.96,23.43,22.77,52.7,47.44,59.21,17.03-6.86,30.42-23.41,30.44-42.73l.18-156.81c17.91-14.54,30.04-32.56,37.9-53.76,3.42-9.23,8.48-28.73,9.4-37.28.99-9.13,1.74,17.71,1.75,18.8l1.01,234.93c.09,19.72,21.78,36.37,31.58,36.79,8.29.36,16.28-7.31,21.28-13.01,13.15-14.98,16.45-34.53,16.45-54.38v-363.88c0-27.63-6.04-59.45-34.98-69.64-1.91-.67-3.96-1.59-5.1-2.27-1.13-.68-.04-5.25,1.36-5.25h347.69c1.18.53,2.11,2.09,2.5,2.97l15.03,34.19.74,1.68.75,1.7.78,1.77,33.69,76.45.8,1.82,27.56,62.74c1.09,1.98,1.21,1.7.64-.52-9.48-46.82-16.02-111.34,9.02-153.92,10.26-17.46,28.44-28.42,49.21-28.51l90.19-.37c1.85,0,3.8.27,4.88.5s.25,5.21-1.18,5.6c-21.61,5.87-34.94,26.5-37.28,48.79-.96,9.12-1.6,17.47-1.6,27.13l-.02,432.38c-2,2.03-22.29,1.45-23.64.32s-2.23-3.74-3.44-6.47l-66.18-149.45-.89-2-108.13-244.22c-4.73-10.67-18.19-41.47-22.85-49.26l-11.79-19.72c-1.18-.18-1.88-.28-2.23-.26l.04,393.35c0,28.71,7.61,57.19,37.46,66.32,9.48,2.9,19.49,4.58,29.43,6.34,1.34.24,3.4,2.77,3.15,3.98-.31,1.51-3.56,2.22-5.79,2.22l-89.06.17h-281.83l-231.47-.14c-1.32,0-3.71-1.37-3.68-2.29.19-6.86,11.03-4.02,19.26-14.75,4.2-5.48,7.52-11.94,8.33-18.88,1.17-9.97,1.2-19.83-1.07-30.44l-71.25-333.03-82.31,391.08-.49,2.34c-.34,1.61-.54,4.99-1.87,5.38s-4.6.68-6.09.66l-2.64-.02h-4.84c-1.49.01-3.39-.5-3.69-2.01l-.44-2.27-23.93-122.28-4.94-25.25-.37-1.95c-.11-.61-.35-1.51-.38-1.95l-.16-2.16-.17-2.13c-1.81-1.95-2-1.61-1.33.87-5.76,49.01-22.21,113.39-60.77,146.23-9.94,8.46-21.46,12.83-34.72,12.83l-131.79.02h-.04ZM1553.6,1165.81l.21-418.69c-7.1-7.17-15.08-12.77-22.62-16.84l.06,149.72c0,1.47-2.71,3.42-3.94,3.18s-2.29-2.51-2.5-4.28c-5.34-44.92-13.84-114.19-52.97-141.96-10.22-6.25-21.47-10.45-34-10.47l-86.33-.14.02,157.87,38.48-.16c10.31-.04,20.56-1.37,30.24-4,15.76-4.29,20.08-20.75,18.94-34.8l-4.12-50.49c2.04-.87,4.77-.78,6.59.38l93.14,419.44c12.77-12.81,18.81-29.82,18.82-48.76h-.02ZM1717.85,963.91l74.82,169.96.16-349.59c0-12.23-3.12-23.2-7.48-33.4-6.55-15.31-20.37-23.48-36.56-23.73-15.09-.23-27.79,5.33-37.21,17.29-9.58,12.16-15.65,26.66-18.1,42.51-3.98,25.76-4.26,51.19-.33,77.51,5.03,33.68,10.59,67.38,24.7,99.44h0ZM780.77,1208.78c13-13.15,21.32-27.99,29.11-44.49,18.5-43.58,26.91-90.19,25.09-137.95l-37.41-192.25-69.54,330.19c-1.7,14.58-2.65,27.51.64,41.15,2.74,6.7,5.92,14.11,13.36,16.03,14.2,3.68,27.97-2.36,38.74-12.68h0ZM1490.17,1061.79l-25.21-112.1c-2.41-10.72-8.18-20.47-12.84-30.05-4.92-10.1-13.66-16.05-23.71-20.37-23.6-7.36-52.38-5.22-76.9-5.34v329.07l93.51-.21c11.76-.03,21.9-5.43,30.14-12.59,18.87-20.13,23.79-53.91,22.76-80.55-.89-22.91-2.55-44.77-7.74-67.86h-.01Z"/>
  <path class="st0" d="M268.26,316.45l-56.27-37c-21.3-14-41.53-28-63.62-40.81-6.31-3.66-15.55-2.04-21.59.82s-8.74,9.64-8.46,16.17c.89,20.92,22.62,47.72,38.43,59.46,20.63,15.31,41.62,29.24,64.97,40.47l135.81,65.34c26.23-29.86,62.53-67.07,105.6-66.76,21.35.16,52.37,10.81,61.06,35.39-17.31-8.01-33.61-14.49-52.47-14.6-40.86-.23-73.54,24.09-101.47,51.93,29.45,16.78,54.59,34.27,72.42,62.5,27.63,43.75,18.52,98.59-19.91,132.47-24.58,21.68-56.29,31.72-89.01,24.26-35.93-6.93-70.99-31.23-96.42-56.98-16.38,16.44-32.71,33.72-51.36,48.71-44.01,35.37-106.51,32.48-146.88-6.94-19.27-18.82-31.7-43.27-36.66-70.19-9.76-52.98,10.49-107.57,52.38-141.08,35.62-28.5,81.44-24.6,113.59,6.77,12.31,13.53,23.45,26.77,33.48,42.24l55.97,86.37,63.94-87.76c-25.13-16.9-50.16-31.8-76.98-44.67l-43.8-21.02c-25.43-11.88-48.09-27.71-66.96-48.53-21.28-23.49-35.79-55.76-31.62-88.01,3.86-29.84,28.09-52.85,59.11-52.53,27.32.28,54.97,6.35,78.76,19.99l88.12,50.5c18.95,10.86,40.84,8.6,58.22-3.83,10.47-7.49,19.25-16.18,27.25-26.4l27.44-35.09c-3.97-1.82-6.65-2.77-10.86-5.55l176.91-.1,47.5.51,114.77.31,109.65,152.78-134.38-97.57c-25.22-9.37-52.14-11.02-79.27-7.44l116.27,153.6c8.66,11.44,19.34,20.19,30.34,28.82l29.19,22.91-41.09.52-71.8,1.07c-13.44.28-17.59,11.8-25.37,19.52-14.55,14.45-32.85,24.19-49.35,37.79l-1.27-70.81c-.24-13.11-5.75-24.83-7.54-38.25l19.95,10.65c8.99,4.8,19.44,8.07,29.81,7.79l39.59-1.06-115.99-166.83c-9.67-13.92-22.04-25.99-36.97-33.78-19.01-9.93-44.04-3.69-57.63,12.07-5.88,6.82-5.44,16.96-7.09,25.03v93.07c-14.07-9.94-28.13-15.46-45.68-17.33l-.1-88.27c-1.29-17.1-11.63-31.18-26.92-38.19-10.23,40.62-26.54,81.82-56.47,110.87-19.67,19.1-48.34,23.85-73.39,12.44-16.05-7.31-30.65-15.73-45.87-25.74v-.02ZM232.47,585.06l-58.8-74.52c-18.74-23.75-50.68-47.73-81.12-51.96-24.47-3.4-46.29,7.91-57.57,29.41-25.04,47.72-14.33,106.89,25.86,142.93,25,22.43,59.44,28.36,90.99,16.82,31.88-12.18,58.55-36.13,80.64-62.69h0ZM418.67,589.15c-2.12-14.93-7.8-27.4-14.34-40.02-7.73-13.36-16.65-24.92-27.1-36.41-14.41-14.87-30.02-27.86-47.49-39.51l-67.4,87.29c20.03,30.45,48.79,53.5,82.95,64.57,14.91,4.83,30.44,7.07,45.29,4.02,19-3.9,30.86-20.41,28.08-39.95h0Z"/>
  <path class="st0" d="M1273.44,591.91l-63.36-295.89-75.42,358-15.79.28-28.44-144.91c-5.2,42.81-17.7,95.65-48.65,127.66-8.77,9.07-19.85,17.09-32.97,17.12l-153.92.37c8.77-4.25,17.23-6.93,24.36-12.94,9.84-8.29,15.89-19.38,15.95-32.64l.32-71.96,43.82-64.81.74,137.91c.06,11.48,2.72,21.71,12.2,28.74,12.56-11.38,21.58-26.1,25.24-43.41l82.12-388.31c6.57-.34,11.77-.34,18.41.05l68.47,349.83,74.06-349.89,18.32-.28,82.12,388.27c3.6,17.02,11.91,31.05,24.33,42.91,3.59-6.57,8.5-13.64,8.5-22.65l.03-412.78,95.34-.06c1.16.58,2.34,1.31,1.55,1.2l-34.83,15.52c-7.55,9.46-12.81,18.59-8.49,31.28l56.51,165.92c-11.75,11.68-23.56,21.47-38.3,32.08l-25.89-70.21-.77,99.44c49.71-23.26,89.82-61.13,117.1-108.71,14-24.42,24.99-49.73,34.71-76.11,5.7-15.47,11.13-37.78,7.97-54.02-.4-1.91-.6-3.79.45-1.29,11.14,18.4,1.47,60.33-4.95,79.74-26.89,81.28-82.43,166.98-155.65,214.7l.02,75.93c0,14.85,7.67,28.07,19.28,36.64,4.9,3.62,10.57,5.94,15.16,9.73l-179.94.07c-2.59,0-3.49-3.06-2.83-3.87s2.19-2.02,3.38-2.39c23.79-7.42,24.4-34.46,19.73-56.24v-.02ZM1035.96,631.32c10.7-11.4,17.9-24.5,24.65-38.91,16.28-39.09,23.87-80.78,21.95-123.54l-33.51-171.67-61.78,293.36c-2.39,11.34-2.1,21.8-1.64,32.89,1.5,6.61,3.13,13.06,7.83,17.99,9.48,9.92,30.61,2.56,42.5-10.1v-.02Z"/>
  <path class="st0" d="M216.37,1232.3l-175.31.27c-1.24,0-3-3.04-2.5-3.84s2.09-2.43,3.3-2.79c25.45-7.6,36.43-36.1,36.43-61.5v-370.87c0-14.51-2.94-27.96-9.54-40.01-11.79-21.53-30.4-21.18-29.82-24.36l.8-4.37,172.63.1c17.07.01,32.56,1.77,49.11,4.84,72.43,13.41,133.83,60,166.14,126.39,47.81,98.23,34.46,227.03-43.16,306.3-43.22,44.14-104.56,69.73-168.08,69.83h0ZM397.06,1061.96c11.56-59.43,6.44-119.15-13.8-175.38-20.52-57.01-57.57-107.95-112.58-135.32-22.42-10.53-45.77-16.61-70.7-16.65l-68.81-.11v488.45l88.43-.16c22.93-.04,44.02-4.88,65.2-12.76,62.25-26.34,99.4-81.96,112.27-148.08h0Z"/>
  <path class="st0" d="M1600.8,618.38c12.89,34.46,50.72,27.83,56.68,34.46.43.48-1.82,1.83-2.54,1.83l-182.33-.04,10.13-8.63c4.45-3.8,5.35-9.85,3.89-15.46l-40.18-119.47,36.41-38.68,48.47,138.87c4.89,14,23.74,27.25,37.38,32.48,17.37-15.12,20.38-35.14,20.38-57.52l.04-359.79c-8.79-9.94-23.98-18.06-34.84-21.7-.98-.33-2.29-2-2.46-2.53-.25-.8,1.83-1.61,2.99-1.61l80.46.05,75.58,171.51c-9.43-43.08-17.33-100.39,2.5-140.96,8.78-18.39,25-29.87,46.51-30.3,25.29-.52,59.47-.25,80.78-.22,1.68,0,2.7,2.44,2.31,2.69s-1.66,1.17-2.23,1.34c-23.5,7.19-33.35,32.05-33.36,55.45l-.07,394.19-19.91.07-171.03-385.96c-5.61-12.65-12.56-23.77-20.52-34.64v358.83c0,9.32,1.93,17.7,4.94,25.75h.02ZM1731.9,418.15l68.6,155.8.06-309.45c0-12.28-2.16-23.31-6.26-33.92-6.16-14.68-18.99-22.86-34.64-22.85-14.32,0-26.03,6.01-34.51,17.64-21.47,29.42-18.24,73.9-14.82,108.98,5.68,28.29,9.61,56.61,21.58,83.8h-.01Z"/>
  <path class="st0" d="M667.7,877.03c13.32-29.49,37.83-82.69,26.45-113.74,16.06,20.93,4.65,70.4-3.31,94.36-30.2,90.92-92.05,185.32-173.18,238.52l-.04,81.48c0,15.41,5.44,29.21,16.69,39.59,6.51,6.01,14.28,9.39,22.35,14.94h-120.64c16.77-9.58,31.6-23.61,31.62-43.8l.35-370.63.22-89.39,107.44,1.38-38.6,17.66c-7.84,10.2-14.28,20.85-9.66,34.36l63.17,185.6c-13.94,13.39-27.16,24.6-42.76,35.48l-28.61-77.5-1.03,110.35c71.17-34.63,116.76-86.09,149.54-158.63v-.03Z"/>
  <path class="st0" d="M589.97,653.33l-198.27-.74,17.56-9.28c7.92-3.84,16.16-6.14,23.95-10.59,21.12-12.07,37.18-33.83,37.35-58.55l.63-92.27.08-97.52c16.27.08,30.87,4.87,45.16,12.35v210.39c18.86,2.34,37.51-1.07,54.64-9.97l125.58-91.32-106.68,147.5h0Z"/>
  <path class="st0" d="M653.34,582.25l33.89-46.37c4.16-4.08,8.61-7.75,13.71-11.06l.09,95.64c27.92-4.19,54.42-11.13,80.79-20.26l124.57-97.61-101.78,152.32-196.28-.19c5.48-3.28,10.05-4.31,15.13-6.27,29.55-12.92,31.54-35.43,29.89-66.21h-.01Z"/>
  <path class="st0" d="M1205.12,895.56l-7.12-63.08c-1.75-15.53-12.76-27.34-26.97-33.42-8.52-3.64-16.41-4.39-26.95-7.17l21.6-5.78c30.8-8.25,34.8-39.32,36.34-66.91l1.68-30.13c.17-3.03.45-5.6,2.19-7.42l1.28,21.19c1.81,29.9-1.18,75.09,39.98,84.27,6.35,1.41,12.35,2.91,18.87,4.9-12.05,2.74-21.41,3.89-31.09,8.8-13.41,7.46-22.22,19.7-24.19,35.07l-5.62,59.7v-.02Z"/>
  <path class="st0" d="M918.05,346.08c-1.56-17.07-2.66-33.46-5.2-50.32-1.93-12.85-9.97-22.98-21.26-28.74-8.82-4.5-17.51-5.35-28.19-7.75l20.92-5.41c22.96-5.93,30.39-29.62,31.5-50.83l1.59-30.48c.26-5.05.89-9.61,2.25-14.11,4.69,32.56-6.23,85.63,36.48,96.24l18.41,4.57c-9.86,2.29-17.72,2.92-26.05,6.81-12.82,5.99-22.77,17.6-24.04,32.22l-4.8,55.44c-.6-2.21-1.4-5.18-1.63-7.64h.02Z"/>
  <path class="st0" d="M895.92,498l-.57-28.93c26.71-22.05,35.9-47.57,42.7-81,.71,6.39,1.34,13.04,1.36,19.91l.12,55.74-43.6,34.28h-.01Z"/>
  <path class="st0" d="M1496.17,304.7c-2.52,10.18-7.29,17.61-13.78,24.93l-14.29,16.12c.63-30.6,37.86-145.67,81.47-119.3-7.89-1.93-15.1-1.52-21.15,3.97-11.77,10.68-19.95,24.54-23.83,40.22l-8.43,34.07h.01Z"/>
  <path class="st0" d="M626.09,843.7c-2.45,9.74-6.72,17.97-13.32,24.63l-17.8,20.7c4.33-36.03,15.46-69.43,32.57-100.11,10.75-19.28,35.4-50.33,59.27-32.67-8.51-3.21-16.06-2.73-23.19,2.71-13.33,11.42-22.91,26.56-27.28,43.96l-10.26,40.77h.01Z"/>
  <path class="st0" d="M658.53,208.7c-.1-.71,2.56-.77,3.29-.79s1.64,2.73.93,2.9l-2.6.63c-.72.17-1.49-1.77-1.63-2.73h.01Z"/>
  <path class="st0" d="M1836.97,62.99v2.87c-.21.74-.24,1.48-.29,2.33-.27,4.26-1.75,8.37-4.11,11.82-2.67,3.89-7.18,5.12-11.53,3.24-3.26-1.41-5.95-4.15-6.46-3.08-.99,2.09-2.75,3.48-4.68,4.67-7.07,3.77-16.54,4.38-24.33,1.52-6.78,2.25-13.71,4.05-21.15,4.06l-48.05.08-1.4-.54c-3.47-1.35-6.34-3.29-8.33-6.47-2.02-3.24-3.33-6.71-4.59-10.46-.31,5.66-2.61,11.18-6.42,15.5-1.67,1.89-3.85,2.33-6.29,1.7-5.27-1.36-10.02-4.1-14.54-7.28-3.61,3.58-8.4,7.21-13.72,7.59-5.46-.56-10.67-2.04-15.43-4.86-.47,1.32-.76,2.62-1.53,3.72s-2.67,1.46-3.99,1.2c-4.87-.95-13.08-3.73-16.71-7.44-2.73,3.99-5.46,7.85-10.91,7.33-3.89-.37-8.11-.78-9.96-4.9-2.37-5.28-3.48-14.12-4.26-20.11l-5.6-42.93c-.47-3.58-1.77-6.83-1.81-10.41,0-.6,1.18-11.71,2.66-11.89,1.64,3.9,2.64,7.78,3.2,11.98l2.97,22.32,3.18,23.81c.6,4.52,1.42,8.72,2.33,13.16.78,3.79,3.58,6.56,7.64,6.98,2.62.28,6.07.21,8.46-1.03,3.65-1.9,7.61-11.76,10.08-13.95,2.64-2.34,6.93-.85,9,1.42l5.98,6.52c3.34,3.64,8.23,6.02,13.18,7.04,3.21.66,6.84-.28,9.65-1.7l7.11-3.58c5.51,2.33,11.61,6.22,17.5,5.26,2.63-.43,4.38-2.44,4.39-5.18.01-3.48-.43-6.83-.9-10.36l-4.29-31.87c-.94-6.96-1.47-13.64-1.25-20.64.06-1.98,1.18-10.32,3.52-10.42.57.47.83,1.62.84,2.39.06,5.54.47,10.84,1.28,16.31l2.09,14.02c1.75,11.71,4.39,23.07,8.21,34.24,1.14,3.32,2.68,6.24,5,8.82,1.05,1.16,2.73,2.82,4.48,2.82h47.61c6-.01,11.68-1.21,17.29-3.04,3.15-1.02,6.18-2.92,7.91-5.69,1.23-1.97,1.83-6.44,3.76-6.65.29,1.82.35,3.41-.08,4.96l-1.77,6.54c1.52.41,2.93.53,4.52.49,7.2-.15,15.89-.64,18.54-8.63,1.11-3.33,2.05-7.79,5.56-8.9.37,1.15.4,2.25.17,3.28l-1.51,6.81c2.59,2.85,4.45,3.69,8.6,3.76.79.01,1.89-.67,2.79-.97.59-4.17-2.08-2.48-.1-7.11,1.07-2.5,1.97-5.14,2.54-7.74.05-.23.39-.63.59-.66,1.34-.23,3.23,6.72,3.33,7.9ZM1634.63,75.38l6.61,2.59c-.81-3.05-4.32-9.72-7.61-9.04-.77.16-1.7.92-2.03,1.76l-1.24,3.13,4.27,1.56Z"/>
  <path class="st0" d="M1236.33,97.26v-4.88c.17-.4.36-.94.4-1.29.42-3.98,1.02-7.76,2.25-11.53.48-1.48,2.5-6.17,4.29-4.99s.29,6.61-.36,8.51c-.93,2.72-1.14,5.27-.7,8.12,1.49,9.63,8.81,16.87,19.1,15.1,7.48-1.29,18.94-5.98,23.19-12.92.12-6.06-.75-11.98-3.19-17.58l-7.73-10.75,3.18-11.7c.3-1.1,1.66-1.66,2.6-1.21,4.28,6.61,7.64,16.08,9.55,23.63,2.59,10.24.81,19.13-3.1,28.68-6.13,10.01-18.59,15.98-30.23,15.62s-17.79-11.03-18.83-21.26c-.05-.54-.25-1.16-.43-1.54Z"/>
  <path class="st0" d="M1536.99,97.26v-4.88c.17-.4.36-.94.4-1.29.42-3.98,1.02-7.76,2.25-11.53.48-1.48,2.5-6.17,4.29-4.99s.29,6.61-.36,8.51c-.93,2.72-1.14,5.27-.7,8.12,1.49,9.63,8.81,16.87,19.1,15.1,7.48-1.29,18.94-5.98,23.19-12.92.12-6.06-.75-11.98-3.19-17.58l-7.73-10.75,3.18-11.7c.3-1.1,1.66-1.66,2.6-1.21,4.28,6.61,7.64,16.08,9.55,23.63,2.59,10.24.81,19.13-3.1,28.68-6.13,10.01-18.59,15.98-30.23,15.62s-17.79-11.03-18.83-21.26c-.05-.54-.25-1.16-.43-1.54Z"/>
  <path class="st0" d="M1390.46,78.65h-77.04s-.03,11.85-.03,11.85h78.61c1.99,0,4.49-1.05,6.86-2.47-.43-3.42-.45-7.01-.84-10.49-2.39.84-4.84,1.11-7.56,1.11Z"/>
  <path class="st0" d="M1450.35,55.49c-5.87-.84-8.39,6.78-11.92,10.42-.26.32-.93,1.32-1.2,1.57-2.04,1.91-3.89,4.23-5.69,6.41-2.42,2.94-6.1,4.65-9.92,4.71-3.87.05-10.93-3.67-14.79-5.39l-6.62,3.4c-.73.37-1.45.68-2.18.94.39,3.49.41,7.08.84,10.49,2.59-1.55,5.01-3.54,6.4-5.1,3.45,2.61,12.5,7.76,16.61,7.49,3.69-.24,7.13-2.37,8.92-5.52,1.49-2.63,2.87-5.08,4.62-7.69,4.51,3.21,11.12,5.02,16.52,4.88,2.29-.06,5.72-6.44,6.17-9.9.72-5.51-1.14-15.76-7.76-16.71ZM1441.99,67.92c.75-1.48,1.98-2.74,3.71-3.06,1.94-.36,3.96.55,4.41,2.55l.84,3.8c-3.41-.17-6.12-1.41-8.95-3.29Z"/>
  <path class="st0" d="M1465.32,79.3c3,5.68,18.59.92,23.32-.71,1.48-.51,4.86-1.84,3.92-3.84-2.42-5.11-5.47-9.74-9.33-13.85-2.52-2.68-6.91-6.36-10.43-3.18-.61-.18-1.27-.97-1.47-1.66-.91-3.21-.67-6.48.6-9.57,1.19-2.88,4.27-4.71,7.38-3.81,1,.29,2.11,1.17,2.97,1.91,6.66,5.74,11.53,13.16,14.01,21.63,2.09,7.13,2.48,14.94-2.12,21.13-.75,1-2.21,1.82-3.4,2.36-6.42,2.91-13.19,4.92-20.17,5.57-3.42.32-6.09-1.38-7.36-4.48s-2.46-12.52,2.08-11.5Z"/>
  <path class="st0" d="M1313.39,90.5c-4.48-.16-10.04-1.1-11.76-5.3-2.28-5.57-3.29-13.64-4.09-19.78l-5.6-42.89c-.47-3.58-1.77-6.86-1.8-10.43,0-.63,1.18-11.49,2.63-11.89,1.69,3.89,2.66,7.78,3.23,11.97l2.63,19.52,3.57,26.86c.59,4.44,1.42,8.6,2.31,12.95.78,3.82,4.98,6.59,8.92,7.14l-.03,11.85Z"/>
  <path class="st0" d="M1270.34,32.59c-.48,1.82-2.3,8.84-4.39,8.46-2.72-.49-8.52-1.89-9.41-4.48-.17-.51.32-1.37.61-2.01l2.87-6.3c.66-1.44,2.04-1.81,3.33-1.19l5.26,2.55c.97.47,2.01,1.9,1.73,2.98Z"/>
  <path class="st0" d="M1570.89,38.07c-.85,2.49-2.16,7.95-4.44,7.49-2.62-.53-8.26-1.87-9.17-4.4-.17-.47.27-1.31.54-1.89l2.96-6.5c.59-1.31,1.93-1.82,3.15-1.23l5.43,2.62c1.55.75,2.05,2.42,1.55,3.91Z"/>
  <path class="st0" d="M1411.89,100.82c-.42,2.29-2.51,10.14-6.11,8.02-2.63-1.54-4.87-3.6-6.53-6.13,1.43-3.16,2.77-5.92,4.74-8.87,1.96.55,8.28,4.96,7.91,6.98Z"/>
  <path class="st0" d="M1681.94,101.89c-.45,2.32-2.41,10.33-6.14,8.18-2.59-1.49-4.69-3.5-6.51-6.02,1.33-3.14,2.74-6.11,4.82-9.01,2.18.9,7.72,4.68,7.82,6.84Z"/>
  <path class="st0" d="M1665.69,114.6c-1.23,2.2-7.46-2.48-8.88-3.4-.82-.81-1.26-1.89-.79-3.01,1.12-2.7,2.36-5.18,3.99-7.67,3.13,1.9,5.62,3.92,8.1,6.42-.3,2.83-1.07,5.25-2.41,7.66Z"/>
  <path class="st0" d="M1395.68,113.3c-1.24,2.29-7.44-2.41-8.89-3.33-.94-.87-1.25-2.05-.74-3.26,1.09-2.56,2.28-4.87,3.85-7.43,3.06,1.83,5.74,3.85,8.12,6.46-.14,2.68-1.11,5.26-2.34,7.55Z"/>
</svg>