<?xml version="1.0" encoding="UTF-8"?>
<svg id="Layer_1" data-name="Layer 1" xmlns="http://www.w3.org/2000/svg" viewBox="0 0 518.57 439.97">
  <defs>
    <style>
      .cls-1 {
        fill: #0f6499;
      }

      .cls-2 {
        fill: #274357;
      }
    </style>
  </defs>
  <path class="cls-1" d="M439.65,0c-.8,2.28-.09,4.48-2.55,6.12l-26.26,33.59c-7.81,9.98-16.39,18.47-26.62,25.79-16.98,12.14-38.36,14.35-56.87,3.74l-86.07-49.33C218.04,6.58,191.03.65,164.34.38c-30.3-.31-53.97,22.16-57.74,51.31-4.07,31.5,10.1,63.02,30.89,85.97,18.43,20.34,40.57,35.8,65.4,47.4l42.78,20.53c26.2,12.57,50.65,27.12,75.19,43.63l-62.45,85.72-54.67-84.36c-9.8-15.11-20.68-28.04-32.7-41.26-31.4-30.64-76.16-34.45-110.95-6.61C19.18,235.44-.6,288.76,8.93,340.51c4.84,26.29,16.99,50.18,35.81,68.56,39.43,38.5,100.48,41.33,143.47,6.78,18.22-14.64,34.17-31.52,50.17-47.58,24.84,25.15,59.08,48.89,94.18,55.66,31.96,7.29,62.93-2.52,86.94-23.7,37.54-33.09,46.44-86.66,19.45-129.39-17.42-27.57-41.97-44.66-70.74-61.05,27.28-27.19,59.2-50.95,99.11-50.72,18.42.11,34.34,6.44,51.25,14.26-8.49-24.01-38.79-34.41-59.64-34.57-42.07-.3-77.53,36.04-103.15,65.21l-132.65-63.82c-22.81-10.97-43.31-24.58-63.46-39.53-15.44-11.47-36.67-37.64-37.54-58.08-.27-6.38,2.36-13,8.26-15.79,5.9-2.79,14.93-4.38,21.09-.8,21.58,12.51,41.34,26.19,62.14,39.86l54.96,36.14h0s0,.02,0,.02c14.87,9.78,29.13,18,44.8,25.14,24.47,11.14,52.47,6.51,71.68-12.15,29.23-28.38,45.17-68.62,55.16-108.29.01,0,.02.01.03.02V0h-.63ZM233.63,364.31h0c-21.58,25.94-47.63,49.33-78.76,61.22-30.82,11.27-64.46,5.48-88.88-16.43-39.26-35.2-49.72-93-25.26-139.61,11.02-21,32.33-32.05,56.23-28.73,29.73,4.13,60.93,27.55,79.24,50.75l57.43,72.78s0,0,0,0h0ZM375.02,293.65c10.21,11.22,18.92,22.51,26.47,35.56,6.39,12.33,11.94,24.51,14.01,39.09h0c2.72,19.08-8.87,35.2-27.43,39.01-14.51,2.98-29.67.79-44.24-3.93-33.37-10.81-61.46-33.33-81.02-63.07l65.83-85.26c17.06,11.38,32.31,24.07,46.39,38.59Z"/>
  <polygon class="cls-2" points="0 422.27 0 422.26 0 422.26 0 422.27"/>
</svg>